<svg width="38" height="26" viewBox="0 0 38 26" fill="none" xmlns="http://www.w3.org/2000/svg">
<path d="M20.4614 0.92171L1.32135 13.4649C0.419824 14.0325 -0.0207853 14.668 0.000752847 15.372V17.2811C0.022291 17.9857 0.473361 18.6103 1.35458 19.1555L10.827 24.8474C10.8833 24.8816 10.9461 24.9027 11.011 24.909C11.0758 24.9154 11.1413 24.9069 11.2027 24.8841C11.264 24.8613 11.3199 24.8249 11.3664 24.7772C11.4128 24.7296 11.4486 24.672 11.4713 24.6084L13.5981 19.258L9.08738 16.5994C8.95735 16.5292 8.84806 16.4237 8.77108 16.2939C8.71342 16.1964 8.67502 16.0879 8.65809 15.9747C8.64111 15.8616 8.64603 15.7461 8.67243 15.6349C8.69883 15.5237 8.74621 15.4192 8.81188 15.3273C8.87754 15.2354 8.96012 15.1581 9.05476 15.0998L17.3359 9.81662L20.7506 1.16066C20.7643 1.12012 20.7655 1.07616 20.7542 1.03485C20.7428 0.993544 20.7194 0.956922 20.6872 0.930038C20.6552 0.903485 20.6159 0.888341 20.575 0.886842C20.5341 0.885342 20.4939 0.897566 20.4601 0.92171H20.4614Z" fill="#3D3D3D"/>
<path d="M36.1841 7.90887L26.8415 2.01269C26.7873 1.97752 26.7265 1.95486 26.6633 1.94621C26.6 1.93757 26.5356 1.94315 26.4745 1.96257C26.4135 1.98199 26.3572 2.01482 26.3093 2.05882C26.2615 2.10283 26.2233 2.157 26.1972 2.21768L24.0065 7.56807L28.4525 10.3291C28.5805 10.4015 28.687 10.5098 28.7615 10.6417C28.8361 10.7741 28.8754 10.9249 28.8754 11.0783C28.8754 11.2318 28.8361 11.3825 28.7615 11.5149C28.6877 11.6467 28.5809 11.7552 28.4525 11.8288L20.1074 16.9409L16.5629 25.5296C16.5286 25.5704 16.511 25.6237 16.514 25.6778C16.517 25.732 16.5403 25.7827 16.5789 25.8192C16.5978 25.8371 16.62 25.8508 16.644 25.8597C16.6682 25.8686 16.6937 25.8723 16.7192 25.8707C16.7447 25.8692 16.7696 25.8624 16.7926 25.8507C16.8155 25.839 16.836 25.8226 16.8527 25.8025L22.9751 21.9511L25.3917 25.5642C25.4445 25.6475 25.5162 25.7158 25.6005 25.7633C25.6848 25.8108 25.7789 25.836 25.8747 25.8365H31.6747C31.7804 25.8368 31.8843 25.8067 31.9746 25.7495C32.0649 25.6923 32.1383 25.6103 32.1866 25.5123C32.2364 25.4142 32.2599 25.3039 32.2548 25.193C32.2497 25.0822 32.2162 24.9748 32.1577 24.8819L28.2267 18.6103L36.1854 13.6007C37.0875 13.0325 37.5386 12.3964 37.5386 11.6917V9.81726C37.5386 9.11259 37.0875 8.4771 36.1847 7.90887H36.1841Z" fill="#3D3D3D" fill-opacity="0.34"/>
</svg>
