<svg width="507" height="120" viewBox="0 0 507 120" fill="none" xmlns="http://www.w3.org/2000/svg">
<path d="M60.0795 0C72.053 0 82.543 2.33696 91.5497 7.01087C100.556 11.6848 107.55 18.4783 112.53 27.3913C117.51 36.1957 120 46.7391 120 59.0217C120 70.9783 117.457 81.5761 112.371 90.8152C107.285 100.054 100.185 107.228 91.0729 112.337C81.9603 117.446 71.5762 120 59.9205 120C47.947 120 37.457 117.663 28.4503 112.989C19.4437 108.315 12.4503 101.576 7.4702 92.7717C2.49007 83.8587 0 73.2609 0 60.9783C0 49.0217 2.54305 38.4239 7.62914 29.1848C12.7152 19.9457 19.8146 12.7717 28.9272 7.66305C38.0397 2.55435 48.4238 0 60.0795 0ZM59.4437 2.93478C54.2517 2.93478 49.6424 5.38043 45.6159 10.2717C41.6954 15.0544 38.6755 21.7935 36.5563 30.4891C34.4371 39.1848 33.3775 49.1304 33.3775 60.3261C33.3775 71.6304 34.596 81.5761 37.0331 90.163C39.4702 98.75 42.755 105.38 46.8874 110.054C51.0199 114.728 55.5762 117.065 60.5563 117.065C65.7484 117.065 70.3046 114.674 74.2252 109.891C78.2517 105 81.3245 98.2065 83.4437 89.5109C85.5629 80.8152 86.6225 70.8696 86.6225 59.6739C86.6225 48.3696 85.404 38.4239 82.9669 29.837C80.5298 21.25 77.245 14.6196 73.1126 9.94566C68.9801 5.27174 64.4239 2.93478 59.4437 2.93478Z" fill="black"/>
<path d="M143.86 30.848C149.052 30.848 152.939 32.1533 155.52 34.764C158.101 37.3453 159.392 41.1147 159.392 46.072C159.392 49.2693 158.761 52.0707 157.5 54.476C156.239 56.8813 154.405 58.744 152 60.064C149.624 61.3547 146.779 62 143.464 62L140.912 61.956C139.269 61.8973 138.067 61.868 137.304 61.868C134.899 61.868 133.08 61.912 131.848 62V61.12C132.904 61.0613 133.667 60.944 134.136 60.768C134.635 60.592 134.972 60.2547 135.148 59.756C135.324 59.2573 135.412 58.4507 135.412 57.336V35.512C135.412 34.3973 135.324 33.5907 135.148 33.092C134.972 32.5933 134.635 32.256 134.136 32.08C133.667 31.904 132.904 31.7867 131.848 31.728V30.848C132.875 30.936 134.297 30.98 136.116 30.98L139.856 30.936C141.851 30.8773 143.185 30.848 143.86 30.848ZM142.76 31.64C141.851 31.64 141.161 31.7427 140.692 31.948C140.252 32.1533 139.944 32.52 139.768 33.048C139.592 33.576 139.504 34.368 139.504 35.424V57.424C139.504 58.48 139.592 59.272 139.768 59.8C139.944 60.328 140.252 60.6947 140.692 60.9C141.161 61.1053 141.865 61.208 142.804 61.208C145.913 61.208 148.363 60.6507 150.152 59.536C151.941 58.392 153.188 56.7347 153.892 54.564C154.625 52.3933 154.992 49.6213 154.992 46.248C154.992 42.8747 154.596 40.132 153.804 38.02C153.012 35.8787 151.721 34.28 149.932 33.224C148.172 32.168 145.781 31.64 142.76 31.64ZM168.754 62.308C166.906 62.308 165.527 61.8533 164.618 60.944C163.738 60.0053 163.298 58.7147 163.298 57.072C163.298 55.752 163.65 54.6667 164.354 53.816C165.087 52.9653 165.938 52.2907 166.906 51.792C167.903 51.2933 169.209 50.7653 170.822 50.208C172.465 49.6507 173.682 49.1373 174.474 48.668C175.266 48.1987 175.662 47.568 175.662 46.776V44.048C175.662 42.3467 175.295 41.188 174.562 40.572C173.858 39.9267 172.861 39.604 171.57 39.604C169.517 39.604 168.065 40.132 167.214 41.188C167.801 41.3347 168.285 41.6427 168.666 42.112C169.077 42.5813 169.282 43.168 169.282 43.872C169.282 44.6053 169.047 45.192 168.578 45.632C168.109 46.0427 167.507 46.248 166.774 46.248C165.953 46.248 165.337 45.9987 164.926 45.5C164.515 44.972 164.31 44.3413 164.31 43.608C164.31 42.904 164.471 42.3173 164.794 41.848C165.146 41.3787 165.659 40.9093 166.334 40.44C167.038 39.9413 167.933 39.5307 169.018 39.208C170.103 38.8853 171.291 38.724 172.582 38.724C174.87 38.724 176.601 39.2667 177.774 40.352C178.507 41.0267 178.991 41.848 179.226 42.816C179.49 43.7547 179.622 45.0013 179.622 46.556V58.788C179.622 59.5213 179.725 60.0493 179.93 60.372C180.135 60.6947 180.487 60.856 180.986 60.856C181.338 60.856 181.661 60.7827 181.954 60.636C182.277 60.46 182.614 60.2253 182.966 59.932L183.45 60.68C182.687 61.2667 182.027 61.692 181.47 61.956C180.942 62.1907 180.267 62.308 179.446 62.308C178.038 62.308 177.055 61.956 176.498 61.252C175.941 60.548 175.662 59.5947 175.662 58.392C174.782 59.8587 173.77 60.8853 172.626 61.472C171.482 62.0293 170.191 62.308 168.754 62.308ZM170.69 60.548C172.626 60.548 174.283 59.4333 175.662 57.204V48.58C175.398 48.9907 175.031 49.328 174.562 49.592C174.093 49.856 173.374 50.208 172.406 50.648C171.291 51.1173 170.382 51.572 169.678 52.012C169.003 52.4227 168.417 52.9947 167.918 53.728C167.419 54.4613 167.17 55.4 167.17 56.544C167.17 57.864 167.493 58.8613 168.138 59.536C168.783 60.2107 169.634 60.548 170.69 60.548ZM218.564 57.908C218.564 59.1107 218.813 59.9467 219.312 60.416C219.811 60.856 220.676 61.076 221.908 61.076V62C219.209 61.8827 217.449 61.824 216.628 61.824C215.807 61.824 214.164 61.8827 211.7 62V61.076C212.785 61.076 213.533 60.856 213.944 60.416C214.384 59.9467 214.604 59.1107 214.604 57.908V45.192C214.604 44.0773 214.531 43.1827 214.384 42.508C214.267 41.804 213.959 41.232 213.46 40.792C212.991 40.352 212.257 40.132 211.26 40.132C210.145 40.132 209.133 40.484 208.224 41.188C207.315 41.892 206.596 42.86 206.068 44.092C205.569 45.2947 205.32 46.6293 205.32 48.096V57.908C205.32 59.1107 205.569 59.9467 206.068 60.416C206.567 60.856 207.432 61.076 208.664 61.076V62C205.965 61.8827 204.205 61.824 203.384 61.824C202.563 61.824 200.92 61.8827 198.456 62V61.076C199.541 61.076 200.289 60.856 200.7 60.416C201.14 59.9467 201.36 59.1107 201.36 57.908V45.192C201.36 44.0773 201.287 43.1827 201.14 42.508C201.023 41.804 200.715 41.232 200.216 40.792C199.747 40.352 199.013 40.132 198.016 40.132C196.901 40.132 195.889 40.484 194.98 41.188C194.071 41.892 193.352 42.86 192.824 44.092C192.325 45.324 192.076 46.6733 192.076 48.14V57.908C192.076 59.1107 192.281 59.9467 192.692 60.416C193.132 60.856 193.895 61.076 194.98 61.076V62C192.516 61.8827 190.873 61.824 190.052 61.824C189.231 61.824 187.471 61.8827 184.772 62V61.076C186.004 61.076 186.869 60.856 187.368 60.416C187.867 59.9467 188.116 59.1107 188.116 57.908V44.136C188.116 42.7867 187.867 41.804 187.368 41.188C186.869 40.572 186.004 40.264 184.772 40.264V39.34C185.711 39.428 186.62 39.472 187.5 39.472C189.348 39.472 190.873 39.2667 192.076 38.856V44.048C192.78 42.2293 193.777 40.8947 195.068 40.044C196.359 39.164 197.767 38.724 199.292 38.724C201.287 38.724 202.812 39.2813 203.868 40.396C204.601 41.1587 205.056 42.332 205.232 43.916C205.965 42.068 206.977 40.748 208.268 39.956C209.559 39.1347 210.981 38.724 212.536 38.724C214.531 38.724 216.056 39.2813 217.112 40.396C217.64 40.9827 218.007 41.7307 218.212 42.64C218.447 43.5493 218.564 44.7227 218.564 46.16V57.908ZM228.847 28.34C229.609 28.34 230.269 28.6187 230.827 29.176C231.384 29.7333 231.663 30.3933 231.663 31.156C231.663 31.9187 231.384 32.5787 230.827 33.136C230.269 33.6933 229.609 33.972 228.847 33.972C228.084 33.972 227.424 33.6933 226.867 33.136C226.309 32.5787 226.031 31.9187 226.031 31.156C226.031 30.3933 226.309 29.7333 226.867 29.176C227.424 28.6187 228.084 28.34 228.847 28.34ZM231.135 57.908C231.135 59.1107 231.384 59.9467 231.883 60.416C232.381 60.856 233.247 61.076 234.479 61.076V62C231.78 61.8827 230.005 61.824 229.155 61.824C228.304 61.824 226.529 61.8827 223.831 62V61.076C225.063 61.076 225.928 60.856 226.427 60.416C226.925 59.9467 227.175 59.1107 227.175 57.908V44.136C227.175 42.7867 226.925 41.804 226.427 41.188C225.928 40.572 225.063 40.264 223.831 40.264V39.34C224.769 39.428 225.679 39.472 226.559 39.472C228.407 39.472 229.932 39.2667 231.135 38.856V57.908ZM243.717 57.908C243.717 59.1107 243.967 59.9467 244.465 60.416C244.964 60.856 245.829 61.076 247.061 61.076V62C244.363 61.8827 242.588 61.824 241.737 61.824C240.887 61.824 239.112 61.8827 236.413 62V61.076C237.645 61.076 238.511 60.856 239.009 60.416C239.508 59.9467 239.757 59.1107 239.757 57.908V32.784C239.757 31.4347 239.508 30.452 239.009 29.836C238.511 29.22 237.645 28.912 236.413 28.912V27.988C237.323 28.076 238.232 28.12 239.141 28.12C240.989 28.12 242.515 27.9147 243.717 27.504V57.908ZM259.661 38.724C262.653 38.724 265.059 39.7213 266.877 41.716C268.725 43.6813 269.649 46.6733 269.649 50.692C269.649 54.7107 268.725 57.7027 266.877 59.668C265.059 61.6333 262.653 62.616 259.661 62.616C256.669 62.616 254.249 61.6333 252.401 59.668C250.583 57.7027 249.673 54.7107 249.673 50.692C249.673 46.6733 250.583 43.6813 252.401 41.716C254.249 39.7213 256.669 38.724 259.661 38.724ZM259.661 39.604C257.901 39.604 256.508 40.5133 255.481 42.332C254.455 44.1213 253.941 46.908 253.941 50.692C253.941 54.476 254.455 57.2627 255.481 59.052C256.508 60.8413 257.901 61.736 259.661 61.736C261.421 61.736 262.815 60.8413 263.841 59.052C264.868 57.2627 265.381 54.476 265.381 50.692C265.381 46.908 264.868 44.1213 263.841 42.332C262.815 40.5133 261.421 39.604 259.661 39.604ZM279.553 57.908C279.553 59.1107 279.803 59.9467 280.301 60.416C280.8 60.856 281.665 61.076 282.897 61.076V62C280.199 61.8827 278.424 61.824 277.573 61.824C276.723 61.824 274.948 61.8827 272.249 62V61.076C273.481 61.076 274.347 60.856 274.845 60.416C275.344 59.9467 275.593 59.1107 275.593 57.908V32.784C275.593 31.4347 275.344 30.452 274.845 29.836C274.347 29.22 273.481 28.912 272.249 28.912V27.988C273.159 28.076 274.068 28.12 274.977 28.12C276.825 28.12 278.351 27.9147 279.553 27.504V57.908ZM291.043 62.308C289.195 62.308 287.816 61.8533 286.907 60.944C286.027 60.0053 285.587 58.7147 285.587 57.072C285.587 55.752 285.939 54.6667 286.643 53.816C287.376 52.9653 288.227 52.2907 289.195 51.792C290.192 51.2933 291.498 50.7653 293.111 50.208C294.754 49.6507 295.971 49.1373 296.763 48.668C297.555 48.1987 297.951 47.568 297.951 46.776V44.048C297.951 42.3467 297.584 41.188 296.851 40.572C296.147 39.9267 295.15 39.604 293.859 39.604C291.806 39.604 290.354 40.132 289.503 41.188C290.09 41.3347 290.574 41.6427 290.955 42.112C291.366 42.5813 291.571 43.168 291.571 43.872C291.571 44.6053 291.336 45.192 290.867 45.632C290.398 46.0427 289.796 46.248 289.063 46.248C288.242 46.248 287.626 45.9987 287.215 45.5C286.804 44.972 286.599 44.3413 286.599 43.608C286.599 42.904 286.76 42.3173 287.083 41.848C287.435 41.3787 287.948 40.9093 288.623 40.44C289.327 39.9413 290.222 39.5307 291.307 39.208C292.392 38.8853 293.58 38.724 294.871 38.724C297.159 38.724 298.89 39.2667 300.063 40.352C300.796 41.0267 301.28 41.848 301.515 42.816C301.779 43.7547 301.911 45.0013 301.911 46.556V58.788C301.911 59.5213 302.014 60.0493 302.219 60.372C302.424 60.6947 302.776 60.856 303.275 60.856C303.627 60.856 303.95 60.7827 304.243 60.636C304.566 60.46 304.903 60.2253 305.255 59.932L305.739 60.68C304.976 61.2667 304.316 61.692 303.759 61.956C303.231 62.1907 302.556 62.308 301.735 62.308C300.327 62.308 299.344 61.956 298.787 61.252C298.23 60.548 297.951 59.5947 297.951 58.392C297.071 59.8587 296.059 60.8853 294.915 61.472C293.771 62.0293 292.48 62.308 291.043 62.308ZM292.979 60.548C294.915 60.548 296.572 59.4333 297.951 57.204V48.58C297.687 48.9907 297.32 49.328 296.851 49.592C296.382 49.856 295.663 50.208 294.695 50.648C293.58 51.1173 292.671 51.572 291.967 52.012C291.292 52.4227 290.706 52.9947 290.207 53.728C289.708 54.4613 289.459 55.4 289.459 56.544C289.459 57.864 289.782 58.8613 290.427 59.536C291.072 60.2107 291.923 60.548 292.979 60.548ZM332.551 30.232C335.337 30.232 337.772 30.8627 339.855 32.124C341.967 33.3853 343.595 35.2187 344.739 37.624C345.912 40 346.499 42.8453 346.499 46.16C346.499 49.3867 345.897 52.2467 344.695 54.74C343.521 57.2333 341.864 59.1693 339.723 60.548C337.611 61.9267 335.205 62.616 332.507 62.616C329.72 62.616 327.271 61.9853 325.159 60.724C323.076 59.4627 321.448 57.644 320.275 55.268C319.131 52.8627 318.559 50.0027 318.559 46.688C318.559 43.4613 319.145 40.6013 320.319 38.108C321.521 35.6147 323.179 33.6787 325.291 32.3C327.432 30.9213 329.852 30.232 332.551 30.232ZM332.375 31.024C330.497 31.024 328.84 31.684 327.403 33.004C325.995 34.2947 324.895 36.1133 324.103 38.46C323.34 40.8067 322.959 43.4907 322.959 46.512C322.959 49.5627 323.384 52.2467 324.235 54.564C325.115 56.8813 326.288 58.6707 327.755 59.932C329.221 61.1933 330.864 61.824 332.683 61.824C334.56 61.824 336.203 61.1787 337.611 59.888C339.048 58.568 340.148 56.7347 340.911 54.388C341.703 52.0413 342.099 49.3573 342.099 46.336C342.099 43.2853 341.659 40.6013 340.779 38.284C339.928 35.9667 338.769 34.1773 337.303 32.916C335.836 31.6547 334.193 31.024 332.375 31.024ZM370.136 57.204C370.136 58.5533 370.385 59.536 370.884 60.152C371.383 60.768 372.248 61.076 373.48 61.076V62C372.571 61.912 371.661 61.868 370.752 61.868C368.904 61.868 367.379 62.0733 366.176 62.484V58.568C365.648 59.888 364.856 60.9 363.8 61.604C362.744 62.2787 361.453 62.616 359.928 62.616C357.112 62.616 354.897 61.604 353.284 59.58C351.7 57.556 350.923 54.5933 350.952 50.692C350.952 48.14 351.392 45.9693 352.272 44.18C353.181 42.3613 354.384 40.9973 355.88 40.088C357.405 39.1787 359.077 38.724 360.896 38.724C362.011 38.724 363.023 38.944 363.932 39.384C364.871 39.7947 365.619 40.44 366.176 41.32V32.784C366.176 31.4347 365.927 30.452 365.428 29.836C364.929 29.22 364.064 28.912 362.832 28.912V27.988C363.771 28.076 364.68 28.12 365.56 28.12C367.408 28.12 368.933 27.9147 370.136 27.504V57.204ZM361.204 61.296C362.348 61.296 363.375 60.856 364.284 59.976C365.193 59.096 365.824 57.8493 366.176 56.236V43.124C365.384 40.8653 363.741 39.736 361.248 39.736C359.429 39.736 357.963 40.6747 356.848 42.552C355.733 44.4 355.191 47.1133 355.22 50.692C355.191 54.212 355.689 56.8667 356.716 58.656C357.743 60.416 359.239 61.296 361.204 61.296ZM395.658 57.248C395.658 58.5973 395.908 59.58 396.406 60.196C396.905 60.812 397.77 61.12 399.002 61.12V62.044C398.093 61.956 397.184 61.912 396.274 61.912C394.426 61.912 392.901 62.1173 391.698 62.528V57.336C390.994 59.1547 389.997 60.4893 388.706 61.34C387.416 62.1907 386.008 62.616 384.482 62.616C382.488 62.616 380.962 62.0587 379.906 60.944C379.378 60.3573 378.997 59.6093 378.762 58.7C378.557 57.7907 378.454 56.6173 378.454 55.18V44.136C378.454 42.7867 378.205 41.804 377.706 41.188C377.208 40.572 376.342 40.264 375.11 40.264V39.34C376.02 39.428 376.929 39.472 377.838 39.472C379.686 39.472 381.212 39.2667 382.414 38.856V56.148C382.414 57.2627 382.473 58.172 382.59 58.876C382.737 59.5507 383.045 60.108 383.514 60.548C384.013 60.988 384.761 61.208 385.758 61.208C386.873 61.208 387.885 60.856 388.794 60.152C389.704 59.448 390.408 58.4947 390.906 57.292C391.434 56.06 391.698 54.7107 391.698 53.244V44.136C391.698 42.7867 391.449 41.804 390.95 41.188C390.452 40.572 389.586 40.264 388.354 40.264V39.34C389.264 39.428 390.173 39.472 391.082 39.472C392.93 39.472 394.456 39.2667 395.658 38.856V57.248ZM414.933 38.724C416.106 38.724 417.059 39.0613 417.793 39.736C418.555 40.4107 418.937 41.232 418.937 42.2C418.937 42.9627 418.702 43.6227 418.233 44.18C417.793 44.708 417.191 44.972 416.429 44.972C415.783 44.972 415.226 44.7667 414.757 44.356C414.317 43.9453 414.097 43.388 414.097 42.684C414.097 41.716 414.595 40.924 415.593 40.308C415.387 40.0147 415.079 39.868 414.669 39.868C413.525 39.868 412.483 40.3227 411.545 41.232C410.606 42.112 409.873 43.1973 409.345 44.488C408.817 45.7787 408.553 46.996 408.553 48.14V57.468C408.553 58.8173 408.934 59.756 409.697 60.284C410.489 60.812 411.662 61.076 413.217 61.076V62L412.161 61.956C409.169 61.868 407.262 61.824 406.441 61.824C405.678 61.824 403.947 61.8827 401.249 62V61.076C402.481 61.076 403.346 60.856 403.845 60.416C404.343 59.9467 404.593 59.1107 404.593 57.908V44.136C404.593 42.7867 404.343 41.804 403.845 41.188C403.346 40.572 402.481 40.264 401.249 40.264V39.34C402.187 39.428 403.097 39.472 403.977 39.472C405.825 39.472 407.35 39.2667 408.553 38.856V44.356C409.081 42.8893 409.917 41.584 411.061 40.44C412.234 39.296 413.525 38.724 414.933 38.724ZM430.763 38.724C433.755 38.724 436.16 39.7213 437.979 41.716C439.827 43.6813 440.751 46.6733 440.751 50.692C440.751 54.7107 439.827 57.7027 437.979 59.668C436.16 61.6333 433.755 62.616 430.763 62.616C427.771 62.616 425.351 61.6333 423.503 59.668C421.684 57.7027 420.775 54.7107 420.775 50.692C420.775 46.6733 421.684 43.6813 423.503 41.716C425.351 39.7213 427.771 38.724 430.763 38.724ZM430.763 39.604C429.003 39.604 427.61 40.5133 426.583 42.332C425.556 44.1213 425.043 46.908 425.043 50.692C425.043 54.476 425.556 57.2627 426.583 59.052C427.61 60.8413 429.003 61.736 430.763 61.736C432.523 61.736 433.916 60.8413 434.943 59.052C435.97 57.2627 436.483 54.476 436.483 50.692C436.483 46.908 435.97 44.1213 434.943 42.332C433.916 40.5133 432.523 39.604 430.763 39.604ZM458.873 38.724C460.926 38.724 462.481 39.2813 463.537 40.396C464.094 40.9827 464.49 41.716 464.725 42.596C464.959 43.476 465.077 44.664 465.077 46.16V57.908C465.077 59.1107 465.326 59.9467 465.825 60.416C466.323 60.856 467.189 61.076 468.421 61.076V62C465.722 61.8827 463.962 61.824 463.141 61.824C462.319 61.824 460.677 61.8827 458.213 62V61.076C459.298 61.076 460.046 60.856 460.457 60.416C460.897 59.9467 461.117 59.1107 461.117 57.908V45.192C461.117 43.5493 460.882 42.3027 460.413 41.452C459.943 40.572 458.99 40.132 457.553 40.132C456.35 40.132 455.279 40.484 454.341 41.188C453.402 41.892 452.669 42.86 452.141 44.092C451.642 45.2947 451.393 46.644 451.393 48.14V57.908C451.393 59.1107 451.598 59.9467 452.009 60.416C452.449 60.856 453.211 61.076 454.297 61.076V62C451.833 61.8827 450.19 61.824 449.369 61.824C448.547 61.824 446.787 61.8827 444.089 62V61.076C445.321 61.076 446.186 60.856 446.685 60.416C447.183 59.9467 447.433 59.1107 447.433 57.908V44.136C447.433 42.7867 447.183 41.804 446.685 41.188C446.186 40.572 445.321 40.264 444.089 40.264V39.34C445.027 39.428 445.937 39.472 446.817 39.472C448.665 39.472 450.19 39.2667 451.393 38.856V44.048C452.126 42.1707 453.138 40.8213 454.428 40C455.749 39.1493 457.23 38.724 458.873 38.724ZM483.41 38.724C485.904 38.724 487.913 39.7507 489.438 41.804C490.993 43.8573 491.77 46.82 491.77 50.692C491.77 53.244 491.33 55.4147 490.45 57.204C489.57 58.9933 488.382 60.3427 486.886 61.252C485.42 62.1613 483.777 62.616 481.958 62.616C480.873 62.616 479.817 62.396 478.79 61.956C477.793 61.516 476.913 60.8853 476.15 60.064L473.026 62.704L472.278 62.396C472.484 61.6627 472.586 60.812 472.586 59.844V32.828C472.586 31.4787 472.337 30.496 471.838 29.88C471.34 29.264 470.474 28.956 469.242 28.956V28.032C470.181 28.12 471.09 28.164 471.97 28.164C473.818 28.164 475.344 27.9587 476.546 27.548V43.432C477.192 41.936 478.116 40.7773 479.318 39.956C480.55 39.1347 481.914 38.724 483.41 38.724ZM481.606 61.604C483.572 61.604 485.038 60.724 486.006 58.964C487.004 57.1747 487.502 54.4173 487.502 50.692C487.502 47.1133 487.062 44.444 486.182 42.684C485.302 40.924 483.953 40.044 482.134 40.044C480.902 40.044 479.773 40.528 478.746 41.496C477.72 42.4347 476.986 43.7693 476.546 45.5V59.448C477.221 60.152 477.998 60.6947 478.878 61.076C479.758 61.428 480.668 61.604 481.606 61.604ZM500.151 28.34C500.914 28.34 501.574 28.6187 502.131 29.176C502.689 29.7333 502.967 30.3933 502.967 31.156C502.967 31.9187 502.689 32.5787 502.131 33.136C501.574 33.6933 500.914 33.972 500.151 33.972C499.389 33.972 498.729 33.6933 498.171 33.136C497.614 32.5787 497.335 31.9187 497.335 31.156C497.335 30.3933 497.614 29.7333 498.171 29.176C498.729 28.6187 499.389 28.34 500.151 28.34ZM502.439 57.908C502.439 59.1107 502.689 59.9467 503.187 60.416C503.686 60.856 504.551 61.076 505.783 61.076V62C503.085 61.8827 501.31 61.824 500.459 61.824C499.609 61.824 497.834 61.8827 495.135 62V61.076C496.367 61.076 497.233 60.856 497.731 60.416C498.23 59.9467 498.479 59.1107 498.479 57.908V44.136C498.479 42.7867 498.23 41.804 497.731 41.188C497.233 40.572 496.367 40.264 495.135 40.264V39.34C496.074 39.428 496.983 39.472 497.863 39.472C499.711 39.472 501.237 39.2667 502.439 38.856V57.908Z" fill="black"/>
<path d="M147.146 85.032C147.381 84.1667 147.498 83.5433 147.498 83.162C147.498 82.7367 147.373 82.436 147.124 82.26C146.875 82.0693 146.442 81.9373 145.826 81.864L145.936 81.424C146.479 81.468 147.263 81.49 148.29 81.49C149.097 81.49 149.742 81.468 150.226 81.424L150.116 81.864C149.617 81.9373 149.229 82.062 148.95 82.238C148.671 82.414 148.437 82.6927 148.246 83.074C148.07 83.4553 147.887 84.02 147.696 84.768L146.2 90.598C145.672 92.622 144.953 94.1767 144.044 95.262C143.501 95.8927 142.834 96.3913 142.042 96.758C141.265 97.1247 140.429 97.308 139.534 97.308C138.463 97.308 137.569 97.1613 136.85 96.868C136.131 96.56 135.596 96.1273 135.244 95.57C134.848 94.998 134.65 94.316 134.65 93.524C134.65 92.82 134.811 91.8667 135.134 90.664L136.96 83.756C137.077 83.2573 137.136 82.9053 137.136 82.7C137.136 82.3773 137.026 82.1647 136.806 82.062C136.601 81.9593 136.219 81.8933 135.662 81.864L135.794 81.424C136.542 81.468 137.752 81.49 139.424 81.49C140.788 81.49 141.925 81.468 142.834 81.424L142.702 81.864C142.159 81.8933 141.756 81.952 141.492 82.04C141.243 82.128 141.037 82.2967 140.876 82.546C140.729 82.7953 140.583 83.1987 140.436 83.756L138.5 91.038C138.148 92.3287 137.972 93.3993 137.972 94.25C137.972 95.0127 138.133 95.5847 138.456 95.966C138.779 96.3473 139.277 96.538 139.952 96.538C141.492 96.538 142.702 96.0393 143.582 95.042C144.477 94.0447 145.159 92.644 145.628 90.84L147.146 85.032ZM164.027 81.116C164.643 81.116 165.12 81.3067 165.457 81.688C165.809 82.0693 165.985 82.546 165.985 83.118C165.985 83.734 165.802 84.2473 165.435 84.658C165.069 85.054 164.599 85.252 164.027 85.252C163.573 85.252 163.221 85.12 162.971 84.856C162.722 84.592 162.597 84.2327 162.597 83.778C162.612 83.294 162.773 82.854 163.081 82.458C163.389 82.062 163.785 81.7833 164.269 81.622C164.196 81.5633 164.071 81.534 163.895 81.534C163.397 81.534 162.92 81.7027 162.465 82.04C161.908 82.48 161.277 83.2133 160.573 84.24C159.869 85.2667 159.18 86.5207 158.505 88.002L159.231 94.25C159.305 94.7193 159.437 95.086 159.627 95.35C159.833 95.614 160.119 95.746 160.485 95.746C160.837 95.746 161.131 95.6433 161.365 95.438C161.6 95.218 161.805 94.866 161.981 94.382L162.355 93.26H162.795L162.223 94.954C161.93 95.7753 161.527 96.3767 161.013 96.758C160.515 97.1247 159.899 97.308 159.165 97.308C158.036 97.308 157.215 97.0147 156.701 96.428C156.203 95.8267 155.887 94.976 155.755 93.876L155.447 91.324C154.875 92.4093 154.223 93.4287 153.489 94.382C152.756 95.3207 152.052 96.0467 151.377 96.56C150.732 97.0587 150.05 97.308 149.331 97.308C148.715 97.308 148.239 97.1173 147.901 96.736C147.564 96.3547 147.395 95.878 147.395 95.306C147.395 94.69 147.579 94.184 147.945 93.788C148.312 93.3773 148.781 93.172 149.353 93.172C149.793 93.172 150.138 93.304 150.387 93.568C150.637 93.8173 150.761 94.162 150.761 94.602C150.761 95.1007 150.607 95.5553 150.299 95.966C150.006 96.362 149.61 96.6407 149.111 96.802C149.17 96.8607 149.295 96.89 149.485 96.89C149.94 96.89 150.424 96.7213 150.937 96.384C151.568 95.944 152.279 95.2253 153.071 94.228C153.878 93.2307 154.641 92.028 155.359 90.62L154.567 84.108C154.45 83.0813 154.039 82.568 153.335 82.568C152.998 82.568 152.705 82.6853 152.455 82.92C152.221 83.1547 152.015 83.5287 151.839 84.042L151.465 85.164H151.025L151.597 83.47C151.891 82.6487 152.301 82.0547 152.829 81.688C153.357 81.3067 154.017 81.116 154.809 81.116C155.865 81.116 156.635 81.4093 157.119 81.996C157.618 82.5827 157.941 83.4333 158.087 84.548L158.417 87.298C158.931 86.1687 159.51 85.12 160.155 84.152C160.815 83.1693 161.439 82.4213 162.025 81.908C162.685 81.38 163.353 81.116 164.027 81.116ZM186.821 86.682C186.821 88.3687 186.411 90.004 185.589 91.588C184.768 93.172 183.536 94.47 181.893 95.482C180.265 96.494 178.293 97 175.975 97L174.897 96.978C174.047 96.9487 173.299 96.934 172.653 96.934C171.231 96.934 170.131 96.956 169.353 97L169.419 96.56C169.918 96.5307 170.292 96.472 170.541 96.384C170.805 96.296 171.011 96.1273 171.157 95.878C171.319 95.614 171.473 95.2107 171.619 94.668L174.501 83.756C174.619 83.36 174.677 83.0447 174.677 82.81C174.677 82.4873 174.567 82.2527 174.347 82.106C174.142 81.9593 173.768 81.8787 173.225 81.864L173.291 81.424C173.951 81.468 174.919 81.49 176.195 81.49H176.899C178.439 81.446 179.532 81.424 180.177 81.424C182.333 81.424 183.976 81.8713 185.105 82.766C186.249 83.646 186.821 84.9513 186.821 86.682ZM175.975 96.604C177.471 96.604 178.769 96.0833 179.869 95.042C180.969 94.0007 181.805 92.666 182.377 91.038C182.964 89.3953 183.257 87.7087 183.257 85.978C183.257 84.5993 182.971 83.5653 182.399 82.876C181.827 82.172 180.925 81.82 179.693 81.82C179.312 81.82 179.026 81.8713 178.835 81.974C178.659 82.062 178.513 82.2307 178.395 82.48C178.278 82.7293 178.146 83.14 177.999 83.712L175.117 94.712C174.956 95.3573 174.875 95.7607 174.875 95.922C174.875 96.1713 174.956 96.3473 175.117 96.45C175.293 96.5527 175.579 96.604 175.975 96.604ZM197.458 87.056C197.458 88.2733 196.776 89.3367 195.412 90.246C194.048 91.1553 192.464 91.8593 190.66 92.358C190.572 92.8567 190.528 93.3553 190.528 93.854C190.528 94.6313 190.667 95.1813 190.946 95.504C191.239 95.8267 191.665 95.988 192.222 95.988C192.677 95.988 193.19 95.8487 193.762 95.57C194.334 95.2767 194.891 94.8147 195.434 94.184L195.786 94.36C195.258 95.1813 194.547 95.878 193.652 96.45C192.772 97.022 191.782 97.308 190.682 97.308C189.67 97.308 188.841 97.0367 188.196 96.494C187.551 95.9513 187.228 95.1887 187.228 94.206C187.228 92.9007 187.58 91.5513 188.284 90.158C188.988 88.7647 189.949 87.6133 191.166 86.704C192.383 85.78 193.718 85.318 195.17 85.318C195.845 85.318 196.395 85.472 196.82 85.78C197.245 86.0733 197.458 86.4987 197.458 87.056ZM194.686 85.736C194.261 85.736 193.777 86.0367 193.234 86.638C192.691 87.2393 192.193 88.024 191.738 88.992C191.283 89.9453 190.946 90.928 190.726 91.94C191.767 91.4853 192.574 90.994 193.146 90.466C193.733 89.938 194.195 89.3367 194.532 88.662C194.869 87.9727 195.038 87.2393 195.038 86.462C195.038 86.1833 195.009 85.9927 194.95 85.89C194.891 85.7873 194.803 85.736 194.686 85.736ZM199.103 96.692C199.323 96.7947 199.609 96.846 199.961 96.846C200.518 96.846 200.965 96.6773 201.303 96.34C201.64 96.0027 201.809 95.5407 201.809 94.954C201.809 94.4847 201.706 94.0007 201.501 93.502C201.295 93.0033 200.987 92.4387 200.577 91.808C200.518 91.72 200.342 91.456 200.049 91.016C199.77 90.576 199.557 90.158 199.411 89.762C199.279 89.3513 199.213 88.948 199.213 88.552C199.213 87.5987 199.565 86.8213 200.269 86.22C200.987 85.6187 201.97 85.318 203.217 85.318C204.17 85.318 204.962 85.494 205.593 85.846C206.238 86.1833 206.561 86.77 206.561 87.606C206.561 88.0167 206.443 88.3907 206.209 88.728C205.974 89.0653 205.644 89.234 205.219 89.234C204.852 89.234 204.559 89.0947 204.339 88.816C204.119 88.5373 204.009 88.1853 204.009 87.76C204.009 87.3933 204.075 87.056 204.207 86.748C204.339 86.4253 204.5 86.154 204.691 85.934C204.5 85.8167 204.243 85.758 203.921 85.758C203.393 85.758 202.975 85.9267 202.667 86.264C202.373 86.5867 202.219 87.0413 202.205 87.628C202.205 88.024 202.278 88.3833 202.425 88.706C202.586 89.0287 202.85 89.4833 203.217 90.07L203.525 90.532C203.994 91.3093 204.324 91.9473 204.515 92.446C204.72 92.9447 204.823 93.4433 204.823 93.942C204.823 94.5873 204.654 95.1667 204.317 95.68C203.979 96.1787 203.495 96.5747 202.865 96.868C202.249 97.1613 201.523 97.308 200.687 97.308C199.645 97.308 198.78 97.11 198.091 96.714C197.401 96.3033 197.057 95.6507 197.057 94.756C197.057 94.316 197.167 93.942 197.387 93.634C197.607 93.326 197.907 93.172 198.289 93.172C198.67 93.172 198.971 93.3333 199.191 93.656C199.425 93.9787 199.543 94.3893 199.543 94.888C199.543 95.2107 199.506 95.504 199.433 95.768C199.359 96.0173 199.249 96.3253 199.103 96.692ZM210.607 81.952C210.622 81.3507 210.842 80.874 211.267 80.522C211.692 80.17 212.22 79.994 212.851 79.994C213.364 79.994 213.76 80.1187 214.039 80.368C214.332 80.6027 214.479 80.9327 214.479 81.358C214.479 81.9447 214.259 82.4287 213.819 82.81C213.379 83.1913 212.836 83.382 212.191 83.382C211.663 83.382 211.26 83.2573 210.981 83.008C210.702 82.744 210.578 82.392 210.607 81.952ZM209.771 87.496C209.874 87.1587 209.925 86.9387 209.925 86.836C209.925 86.5427 209.793 86.396 209.529 86.396C209.265 86.396 209.023 86.5353 208.803 86.814C208.583 87.078 208.356 87.518 208.121 88.134L207.681 89.256H207.263L207.879 87.584C208.422 86.0733 209.441 85.318 210.937 85.318C211.612 85.318 212.103 85.4867 212.411 85.824C212.719 86.1467 212.873 86.572 212.873 87.1C212.873 87.5253 212.792 87.958 212.631 88.398L210.321 95.13C210.233 95.394 210.189 95.6067 210.189 95.768C210.189 96.076 210.336 96.23 210.629 96.23C210.849 96.23 211.069 96.1053 211.289 95.856C211.524 95.6067 211.766 95.152 212.015 94.492L212.411 93.436H212.829L212.257 95.042C211.744 96.5527 210.754 97.308 209.287 97.308C207.952 97.308 207.285 96.6993 207.285 95.482C207.285 94.998 207.395 94.4407 207.615 93.81L209.771 87.496ZM224.011 84.35C224.465 84.35 224.817 84.4747 225.067 84.724C225.316 84.9733 225.441 85.318 225.441 85.758C225.441 86.154 225.338 86.4693 225.133 86.704C224.927 86.924 224.685 87.034 224.407 87.034C224.113 87.034 223.857 86.924 223.637 86.704C223.417 86.4693 223.307 86.154 223.307 85.758C223.307 85.4793 223.373 85.1567 223.505 84.79C222.933 85.0393 222.493 85.3693 222.185 85.78C222.566 85.9707 222.859 86.242 223.065 86.594C223.27 86.9313 223.373 87.342 223.373 87.826C223.373 88.442 223.197 89.058 222.845 89.674C222.507 90.2753 222.023 90.8033 221.393 91.258C220.762 91.698 220.029 91.9987 219.193 92.16C218.371 92.5267 217.777 92.82 217.411 93.04C217.059 93.26 216.883 93.4727 216.883 93.678C216.883 93.81 216.963 93.9273 217.125 94.03C217.286 94.118 217.535 94.2133 217.873 94.316L219.721 94.932C220.498 95.196 221.107 95.504 221.547 95.856C222.001 96.1933 222.229 96.6773 222.229 97.308C222.229 98.012 221.921 98.6573 221.305 99.244C220.703 99.8453 219.889 100.322 218.863 100.674C217.836 101.026 216.729 101.202 215.541 101.202C214.397 101.202 213.443 101.048 212.681 100.74C211.918 100.432 211.537 100.029 211.537 99.53C211.537 99.0167 211.947 98.5767 212.769 98.21C213.59 97.858 214.521 97.6233 215.563 97.506L215.651 97.836C214.741 98.3347 214.287 98.914 214.287 99.574C214.287 99.9847 214.441 100.293 214.749 100.498C215.057 100.718 215.482 100.828 216.025 100.828C216.567 100.828 217.132 100.718 217.719 100.498C218.32 100.293 218.819 100.007 219.215 99.64C219.611 99.288 219.809 98.9067 219.809 98.496C219.809 98.2613 219.721 98.0853 219.545 97.968C219.383 97.8653 219.09 97.7553 218.665 97.638L215.541 96.736C215.145 96.6187 214.822 96.4427 214.573 96.208C214.338 95.9587 214.221 95.658 214.221 95.306C214.221 94.778 214.529 94.2867 215.145 93.832C215.775 93.3773 216.78 92.8567 218.159 92.27H217.939C216.956 92.27 216.157 92.0647 215.541 91.654C214.939 91.2433 214.639 90.6273 214.639 89.806C214.639 89.1313 214.844 88.4493 215.255 87.76C215.68 87.0707 216.303 86.4987 217.125 86.044C217.946 85.5747 218.921 85.34 220.051 85.34C220.667 85.34 221.239 85.4207 221.767 85.582C222.031 85.2153 222.361 84.922 222.757 84.702C223.167 84.4673 223.585 84.35 224.011 84.35ZM218.313 91.874C218.973 91.874 219.479 91.3827 219.831 90.4C220.183 89.4027 220.359 88.31 220.359 87.122C220.359 86.682 220.307 86.3447 220.205 86.11C220.117 85.8607 219.933 85.736 219.655 85.736C219.229 85.736 218.855 85.9927 218.533 86.506C218.225 87.0193 217.99 87.6573 217.829 88.42C217.682 89.168 217.609 89.8867 217.609 90.576C217.609 91.0453 217.667 91.3827 217.785 91.588C217.902 91.7787 218.078 91.874 218.313 91.874ZM236.478 93.436L235.928 95.042C235.4 96.5527 234.417 97.308 232.98 97.308C232.158 97.308 231.572 97.066 231.22 96.582C231.029 96.3033 230.934 95.9587 230.934 95.548C230.934 95.0787 231.051 94.4993 231.286 93.81L233.266 87.87C233.398 87.474 233.464 87.1587 233.464 86.924C233.464 86.5867 233.324 86.418 233.046 86.418C232.606 86.418 232.07 86.8653 231.44 87.76C230.824 88.6547 230.2 89.8353 229.57 91.302C228.939 92.754 228.389 94.2867 227.92 95.9L227.634 97H224.532L227.194 87.496C227.282 87.232 227.326 86.9973 227.326 86.792C227.326 86.528 227.201 86.396 226.952 86.396C226.673 86.396 226.424 86.528 226.204 86.792C225.998 87.0413 225.778 87.4887 225.544 88.134L225.126 89.256H224.708L225.302 87.584C225.58 86.7773 225.954 86.198 226.424 85.846C226.893 85.494 227.465 85.318 228.14 85.318C229.401 85.318 230.032 85.9193 230.032 87.122C230.032 87.5327 229.973 87.958 229.856 88.398L229.174 91.06C229.775 89.564 230.347 88.4053 230.89 87.584C231.447 86.748 232.004 86.1613 232.562 85.824C233.134 85.4867 233.764 85.318 234.454 85.318C235.774 85.318 236.434 85.9047 236.434 87.078C236.434 87.518 236.338 88.0387 236.148 88.64L233.992 95.13C233.904 95.394 233.86 95.6067 233.86 95.768C233.86 96.076 233.999 96.23 234.278 96.23C234.512 96.23 234.74 96.1053 234.96 95.856C235.194 95.6067 235.429 95.152 235.664 94.492L236.06 93.436H236.478ZM243.021 95.988C243.021 95.4013 243.226 94.91 243.637 94.514C244.048 94.118 244.554 93.92 245.155 93.92C245.624 93.92 245.991 94.0373 246.255 94.272C246.519 94.5067 246.651 94.8367 246.651 95.262C246.651 95.79 246.431 96.2667 245.991 96.692C245.566 97.1027 245.067 97.308 244.495 97.308C244.026 97.308 243.659 97.1907 243.395 96.956C243.146 96.7213 243.021 96.3987 243.021 95.988ZM265.091 81.49C267.174 81.49 268.662 81.468 269.557 81.424C269.22 82.3333 268.934 83.228 268.699 84.108C268.45 85.032 268.296 85.6773 268.237 86.044H267.731C267.79 85.5893 267.819 85.142 267.819 84.702C267.819 83.69 267.614 82.9787 267.203 82.568C266.807 82.1427 266.147 81.93 265.223 81.93H264.717C264.233 81.93 263.866 81.974 263.617 82.062C263.382 82.1353 263.192 82.2967 263.045 82.546C262.898 82.7953 262.759 83.1987 262.627 83.756L261.219 89.036H262.231C262.935 89.036 263.529 88.794 264.013 88.31C264.497 87.826 264.908 87.188 265.245 86.396H265.729C265.509 87.0853 265.238 88.0387 264.915 89.256C264.783 89.8133 264.556 90.8987 264.233 92.512H263.749C263.793 91.5147 263.69 90.7593 263.441 90.246C263.206 89.7327 262.722 89.476 261.989 89.476H261.109L259.723 94.668C259.606 95.108 259.547 95.4307 259.547 95.636C259.547 95.988 259.679 96.2227 259.943 96.34C260.222 96.4573 260.72 96.5307 261.439 96.56L261.351 97C260.456 96.956 259.151 96.934 257.435 96.934C255.822 96.934 254.626 96.956 253.849 97L253.959 96.56C254.487 96.5307 254.876 96.472 255.125 96.384C255.389 96.296 255.602 96.1273 255.763 95.878C255.924 95.6287 256.078 95.2253 256.225 94.668L259.129 83.756C259.246 83.2573 259.305 82.9053 259.305 82.7C259.305 82.3773 259.195 82.1647 258.975 82.062C258.77 81.9593 258.388 81.8933 257.831 81.864L257.941 81.424C259.54 81.468 261.923 81.49 265.091 81.49ZM276.903 85.318C277.46 85.318 277.893 85.4867 278.201 85.824C278.523 86.1467 278.685 86.572 278.685 87.1C278.685 87.7307 278.479 88.2733 278.069 88.728C277.673 89.168 277.181 89.388 276.595 89.388C276.169 89.388 275.839 89.278 275.605 89.058C275.37 88.8233 275.253 88.4933 275.253 88.068C275.253 87.5547 275.429 87.0927 275.781 86.682C276.133 86.2567 276.565 85.9853 277.079 85.868C277.049 85.868 277.005 85.8607 276.947 85.846C276.888 85.8167 276.837 85.802 276.793 85.802C276.045 85.802 275.282 86.3447 274.505 87.43C273.727 88.5153 272.935 90.4513 272.129 93.238L271.161 97H268.059L270.743 87.496C270.816 87.2613 270.853 87.034 270.853 86.814C270.853 86.5353 270.735 86.396 270.501 86.396C270.222 86.396 269.973 86.528 269.753 86.792C269.533 87.056 269.305 87.5033 269.071 88.134L268.653 89.256H268.235L268.829 87.584C269.371 86.0733 270.383 85.318 271.865 85.318C272.994 85.318 273.559 85.912 273.559 87.1C273.559 87.5253 273.5 87.958 273.383 88.398L273.207 89.102C273.749 87.7087 274.299 86.7333 274.857 86.176C275.429 85.604 276.111 85.318 276.903 85.318ZM278.026 93.678C278.026 92.4753 278.297 91.2213 278.84 89.916C279.397 88.6107 280.211 87.518 281.282 86.638C282.367 85.758 283.658 85.318 285.154 85.318C286.298 85.318 287.178 85.6333 287.794 86.264C288.41 86.88 288.718 87.7747 288.718 88.948C288.718 90.1507 288.439 91.4047 287.882 92.71C287.339 94.0153 286.525 95.108 285.44 95.988C284.369 96.868 283.086 97.308 281.59 97.308C280.446 97.308 279.566 97 278.95 96.384C278.334 95.7533 278.026 94.8513 278.026 93.678ZM285.044 85.758C284.501 85.758 283.907 86.2787 283.262 87.32C282.616 88.3613 282.074 89.6373 281.634 91.148C281.194 92.6587 280.974 94.0667 280.974 95.372C280.974 95.9 281.032 96.2813 281.15 96.516C281.267 96.7507 281.458 96.868 281.722 96.868C282.264 96.868 282.851 96.362 283.482 95.35C284.127 94.338 284.67 93.084 285.11 91.588C285.55 90.0773 285.77 88.6473 285.77 87.298C285.77 86.726 285.711 86.33 285.594 86.11C285.476 85.8753 285.293 85.758 285.044 85.758ZM301.704 93.436L301.154 95.042C300.626 96.5527 299.644 97.308 298.206 97.308C297.385 97.308 296.798 97.066 296.446 96.582C296.256 96.3033 296.16 95.9587 296.16 95.548C296.16 95.0787 296.278 94.4993 296.512 93.81L298.492 87.87C298.624 87.474 298.69 87.1587 298.69 86.924C298.69 86.5867 298.551 86.418 298.272 86.418C297.832 86.418 297.297 86.8653 296.666 87.76C296.05 88.6547 295.427 89.8353 294.796 91.302C294.166 92.754 293.616 94.2867 293.146 95.9L292.86 97H289.758L292.42 87.496C292.508 87.232 292.552 86.9973 292.552 86.792C292.552 86.528 292.428 86.396 292.178 86.396C291.9 86.396 291.65 86.528 291.43 86.792C291.225 87.0413 291.005 87.4887 290.77 88.134L290.352 89.256H289.934L290.528 87.584C290.807 86.7773 291.181 86.198 291.65 85.846C292.12 85.494 292.692 85.318 293.366 85.318C294.628 85.318 295.258 85.9193 295.258 87.122C295.258 87.5327 295.2 87.958 295.082 88.398L294.4 91.06C295.002 89.564 295.574 88.4053 296.116 87.584C296.674 86.748 297.231 86.1613 297.788 85.824C298.36 85.4867 298.991 85.318 299.68 85.318C301 85.318 301.66 85.9047 301.66 87.078C301.66 87.518 301.565 88.0387 301.374 88.64L299.218 95.13C299.13 95.394 299.086 95.6067 299.086 95.768C299.086 96.076 299.226 96.23 299.504 96.23C299.739 96.23 299.966 96.1053 300.186 95.856C300.421 95.6067 300.656 95.152 300.89 94.492L301.286 93.436H301.704ZM306.27 95.13C306.226 95.2767 306.204 95.4233 306.204 95.57C306.204 95.79 306.263 95.9587 306.38 96.076C306.497 96.1787 306.659 96.23 306.864 96.23C307.187 96.23 307.495 96.076 307.788 95.768C308.096 95.4453 308.367 94.9687 308.602 94.338L308.932 93.436H309.35L308.91 94.712C308.338 96.4427 307.238 97.308 305.61 97.308C304.862 97.308 304.297 97.1173 303.916 96.736C303.549 96.34 303.366 95.8047 303.366 95.13C303.366 94.7047 303.432 94.2647 303.564 93.81L305.786 86.066H303.806L303.916 85.626H305.918L306.864 82.348C308.111 82.3333 309.174 82.2307 310.054 82.04L309.02 85.626H311.506L311.44 86.066H308.888L306.27 95.13ZM320.714 87.056C320.714 88.2733 320.032 89.3367 318.668 90.246C317.304 91.1553 315.72 91.8593 313.916 92.358C313.828 92.8567 313.784 93.3553 313.784 93.854C313.784 94.6313 313.923 95.1813 314.202 95.504C314.495 95.8267 314.921 95.988 315.478 95.988C315.933 95.988 316.446 95.8487 317.018 95.57C317.59 95.2767 318.147 94.8147 318.69 94.184L319.042 94.36C318.514 95.1813 317.803 95.878 316.908 96.45C316.028 97.022 315.038 97.308 313.938 97.308C312.926 97.308 312.097 97.0367 311.452 96.494C310.807 95.9513 310.484 95.1887 310.484 94.206C310.484 92.9007 310.836 91.5513 311.54 90.158C312.244 88.7647 313.205 87.6133 314.422 86.704C315.639 85.78 316.974 85.318 318.426 85.318C319.101 85.318 319.651 85.472 320.076 85.78C320.501 86.0733 320.714 86.4987 320.714 87.056ZM317.942 85.736C317.517 85.736 317.033 86.0367 316.49 86.638C315.947 87.2393 315.449 88.024 314.994 88.992C314.539 89.9453 314.202 90.928 313.982 91.94C315.023 91.4853 315.83 90.994 316.402 90.466C316.989 89.938 317.451 89.3367 317.788 88.662C318.125 87.9727 318.294 87.2393 318.294 86.462C318.294 86.1833 318.265 85.9927 318.206 85.89C318.147 85.7873 318.059 85.736 317.942 85.736ZM333.028 93.436L332.478 95.042C331.95 96.5527 330.968 97.308 329.53 97.308C328.709 97.308 328.122 97.066 327.77 96.582C327.58 96.3033 327.484 95.9587 327.484 95.548C327.484 95.0787 327.602 94.4993 327.836 93.81L329.816 87.87C329.948 87.474 330.014 87.1587 330.014 86.924C330.014 86.5867 329.875 86.418 329.596 86.418C329.156 86.418 328.621 86.8653 327.99 87.76C327.374 88.6547 326.751 89.8353 326.12 91.302C325.49 92.754 324.94 94.2867 324.47 95.9L324.184 97H321.082L323.744 87.496C323.832 87.232 323.876 86.9973 323.876 86.792C323.876 86.528 323.752 86.396 323.502 86.396C323.224 86.396 322.974 86.528 322.754 86.792C322.549 87.0413 322.329 87.4887 322.094 88.134L321.676 89.256H321.258L321.852 87.584C322.131 86.7773 322.505 86.198 322.974 85.846C323.444 85.494 324.016 85.318 324.69 85.318C325.952 85.318 326.582 85.9193 326.582 87.122C326.582 87.5327 326.524 87.958 326.406 88.398L325.724 91.06C326.326 89.564 326.898 88.4053 327.44 87.584C327.998 86.748 328.555 86.1613 329.112 85.824C329.684 85.4867 330.315 85.318 331.004 85.318C332.324 85.318 332.984 85.9047 332.984 87.078C332.984 87.518 332.889 88.0387 332.698 88.64L330.542 95.13C330.454 95.394 330.41 95.6067 330.41 95.768C330.41 96.076 330.55 96.23 330.828 96.23C331.063 96.23 331.29 96.1053 331.51 95.856C331.745 95.6067 331.98 95.152 332.214 94.492L332.61 93.436H333.028ZM345.338 93.436H345.756L345.228 95.042C344.964 95.878 344.568 96.4647 344.04 96.802C343.527 97.1393 342.955 97.308 342.324 97.308C341.415 97.308 340.836 96.9707 340.586 96.296C340.469 96.032 340.41 95.724 340.41 95.372C340.41 94.9467 340.498 94.426 340.674 93.81L340.696 93.722C340.139 94.9687 339.545 95.878 338.914 96.45C338.298 97.022 337.558 97.308 336.692 97.308C335.915 97.308 335.284 97.0513 334.8 96.538C334.316 96.0247 334.074 95.2547 334.074 94.228C334.074 93.04 334.382 91.7493 334.998 90.356C335.614 88.948 336.48 87.76 337.594 86.792C338.709 85.8093 339.978 85.318 341.4 85.318C342.09 85.318 342.537 85.5673 342.742 86.066L343.732 82.326C343.806 82.062 343.842 81.8567 343.842 81.71C343.842 81.4167 343.725 81.204 343.49 81.072C343.27 80.94 342.889 80.874 342.346 80.874L342.478 80.412C343.49 80.3973 344.407 80.3167 345.228 80.17C346.064 80.0233 346.864 79.8033 347.626 79.51L343.314 95.13C343.241 95.3353 343.204 95.5333 343.204 95.724C343.204 96.0613 343.344 96.23 343.622 96.23C343.842 96.23 344.062 96.1053 344.282 95.856C344.502 95.592 344.73 95.1373 344.964 94.492L345.338 93.436ZM342.588 86.594C342.427 86.0807 342.134 85.824 341.708 85.824C341.078 85.824 340.418 86.2787 339.728 87.188C339.054 88.0827 338.482 89.2193 338.012 90.598C337.558 91.9767 337.33 93.3407 337.33 94.69C337.33 95.2033 337.382 95.5847 337.484 95.834C337.602 96.0833 337.785 96.208 338.034 96.208C338.328 96.208 338.672 95.9953 339.068 95.57C339.464 95.13 339.875 94.4993 340.3 93.678C340.74 92.8567 341.136 91.8813 341.488 90.752L342.588 86.594ZM368.966 86.682C368.966 88.3687 368.555 90.004 367.734 91.588C366.913 93.172 365.681 94.47 364.038 95.482C362.41 96.494 360.437 97 358.12 97L357.042 96.978C356.191 96.9487 355.443 96.934 354.798 96.934C353.375 96.934 352.275 96.956 351.498 97L351.564 96.56C352.063 96.5307 352.437 96.472 352.686 96.384C352.95 96.296 353.155 96.1273 353.302 95.878C353.463 95.614 353.617 95.2107 353.764 94.668L356.646 83.756C356.763 83.36 356.822 83.0447 356.822 82.81C356.822 82.4873 356.712 82.2527 356.492 82.106C356.287 81.9593 355.913 81.8787 355.37 81.864L355.436 81.424C356.096 81.468 357.064 81.49 358.34 81.49H359.044C360.584 81.446 361.677 81.424 362.322 81.424C364.478 81.424 366.121 81.8713 367.25 82.766C368.394 83.646 368.966 84.9513 368.966 86.682ZM358.12 96.604C359.616 96.604 360.914 96.0833 362.014 95.042C363.114 94.0007 363.95 92.666 364.522 91.038C365.109 89.3953 365.402 87.7087 365.402 85.978C365.402 84.5993 365.116 83.5653 364.544 82.876C363.972 82.172 363.07 81.82 361.838 81.82C361.457 81.82 361.171 81.8713 360.98 81.974C360.804 82.062 360.657 82.2307 360.54 82.48C360.423 82.7293 360.291 83.14 360.144 83.712L357.262 94.712C357.101 95.3573 357.02 95.7607 357.02 95.922C357.02 96.1713 357.101 96.3473 357.262 96.45C357.438 96.5527 357.724 96.604 358.12 96.604ZM379.603 87.056C379.603 88.2733 378.921 89.3367 377.557 90.246C376.193 91.1553 374.609 91.8593 372.805 92.358C372.717 92.8567 372.673 93.3553 372.673 93.854C372.673 94.6313 372.812 95.1813 373.091 95.504C373.384 95.8267 373.809 95.988 374.367 95.988C374.821 95.988 375.335 95.8487 375.907 95.57C376.479 95.2767 377.036 94.8147 377.579 94.184L377.931 94.36C377.403 95.1813 376.691 95.878 375.797 96.45C374.917 97.022 373.927 97.308 372.827 97.308C371.815 97.308 370.986 97.0367 370.341 96.494C369.695 95.9513 369.373 95.1887 369.373 94.206C369.373 92.9007 369.725 91.5513 370.429 90.158C371.133 88.7647 372.093 87.6133 373.311 86.704C374.528 85.78 375.863 85.318 377.315 85.318C377.989 85.318 378.539 85.472 378.965 85.78C379.39 86.0733 379.603 86.4987 379.603 87.056ZM376.831 85.736C376.405 85.736 375.921 86.0367 375.379 86.638C374.836 87.2393 374.337 88.024 373.883 88.992C373.428 89.9453 373.091 90.928 372.871 91.94C373.912 91.4853 374.719 90.994 375.291 90.466C375.877 89.938 376.339 89.3367 376.677 88.662C377.014 87.9727 377.183 87.2393 377.183 86.462C377.183 86.1833 377.153 85.9927 377.095 85.89C377.036 85.7873 376.948 85.736 376.831 85.736ZM389.893 89.762C389.262 89.454 388.742 89.0433 388.331 88.53C387.935 88.0167 387.737 87.4447 387.737 86.814C387.737 86.3447 387.862 85.978 388.111 85.714C388.375 85.45 388.727 85.318 389.167 85.318C389.695 85.318 390.076 85.5453 390.311 86C390.56 86.44 390.67 87.056 390.641 87.848C390.568 89.3293 390.252 90.8033 389.695 92.27C389.138 93.722 388.331 94.9247 387.275 95.878C386.219 96.8313 384.958 97.308 383.491 97.308C382.391 97.308 381.599 97.0587 381.115 96.56C380.631 96.0613 380.389 95.438 380.389 94.69C380.389 92.27 382.354 89.4467 386.285 86.22C385.933 86.264 385.618 86.3667 385.339 86.528C385.075 86.6893 384.76 86.924 384.393 87.232C384.085 87.496 383.828 87.694 383.623 87.826C383.418 87.9433 383.205 88.002 382.985 88.002C382.794 88.002 382.567 87.9287 382.303 87.782C382.068 87.65 381.878 87.584 381.731 87.584C381.526 87.584 381.357 87.6647 381.225 87.826C381.108 87.9727 380.983 88.244 380.851 88.64L380.675 89.234H380.257L380.741 87.628C381.166 86.0733 381.856 85.296 382.809 85.296C382.985 85.296 383.139 85.3253 383.271 85.384C383.403 85.428 383.572 85.5087 383.777 85.626C383.997 85.758 384.195 85.8607 384.371 85.934C384.562 85.9927 384.789 86.022 385.053 86.022C385.654 86.022 386.19 85.868 386.659 85.56L386.879 85.142L387.341 85.362C386.256 86.9313 385.39 88.5667 384.745 90.268C384.1 91.9547 383.777 93.4287 383.777 94.69C383.777 95.2473 383.858 95.658 384.019 95.922C384.18 96.186 384.43 96.318 384.767 96.318C385.632 96.318 386.424 95.9807 387.143 95.306C387.862 94.6313 388.456 93.788 388.925 92.776C389.394 91.764 389.717 90.7593 389.893 89.762ZM401.474 87.056C401.474 88.2733 400.792 89.3367 399.428 90.246C398.064 91.1553 396.48 91.8593 394.676 92.358C394.588 92.8567 394.544 93.3553 394.544 93.854C394.544 94.6313 394.683 95.1813 394.962 95.504C395.255 95.8267 395.68 95.988 396.238 95.988C396.692 95.988 397.206 95.8487 397.778 95.57C398.35 95.2767 398.907 94.8147 399.45 94.184L399.802 94.36C399.274 95.1813 398.562 95.878 397.668 96.45C396.788 97.022 395.798 97.308 394.698 97.308C393.686 97.308 392.857 97.0367 392.212 96.494C391.566 95.9513 391.244 95.1887 391.244 94.206C391.244 92.9007 391.596 91.5513 392.3 90.158C393.004 88.7647 393.964 87.6133 395.182 86.704C396.399 85.78 397.734 85.318 399.186 85.318C399.86 85.318 400.41 85.472 400.836 85.78C401.261 86.0733 401.474 86.4987 401.474 87.056ZM398.702 85.736C398.276 85.736 397.792 86.0367 397.25 86.638C396.707 87.2393 396.208 88.024 395.754 88.992C395.299 89.9453 394.962 90.928 394.742 91.94C395.783 91.4853 396.59 90.994 397.162 90.466C397.748 89.938 398.21 89.3367 398.548 88.662C398.885 87.9727 399.054 87.2393 399.054 86.462C399.054 86.1833 399.024 85.9927 398.966 85.89C398.907 85.7873 398.819 85.736 398.702 85.736ZM404.614 95.13C404.556 95.3207 404.526 95.504 404.526 95.68C404.526 96.0467 404.68 96.23 404.988 96.23C405.443 96.23 405.883 95.6507 406.308 94.492L406.704 93.436H407.122L406.572 95.042C406.294 95.8633 405.89 96.45 405.362 96.802C404.834 97.1393 404.262 97.308 403.646 97.308C402.986 97.308 402.488 97.1393 402.15 96.802C401.813 96.45 401.644 95.966 401.644 95.35C401.644 94.8953 401.732 94.382 401.908 93.81L405.362 82.326C405.436 82.062 405.472 81.8567 405.472 81.71C405.472 81.4167 405.355 81.204 405.12 81.072C404.9 80.94 404.519 80.874 403.976 80.874L404.13 80.412C405.142 80.3973 406.052 80.3167 406.858 80.17C407.665 80.0233 408.457 79.8033 409.234 79.51L404.614 95.13ZM408.35 93.678C408.35 92.4753 408.621 91.2213 409.164 89.916C409.721 88.6107 410.535 87.518 411.606 86.638C412.691 85.758 413.982 85.318 415.478 85.318C416.622 85.318 417.502 85.6333 418.118 86.264C418.734 86.88 419.042 87.7747 419.042 88.948C419.042 90.1507 418.763 91.4047 418.206 92.71C417.663 94.0153 416.849 95.108 415.764 95.988C414.693 96.868 413.41 97.308 411.914 97.308C410.77 97.308 409.89 97 409.274 96.384C408.658 95.7533 408.35 94.8513 408.35 93.678ZM415.368 85.758C414.825 85.758 414.231 86.2787 413.586 87.32C412.941 88.3613 412.398 89.6373 411.958 91.148C411.518 92.6587 411.298 94.0667 411.298 95.372C411.298 95.9 411.357 96.2813 411.474 96.516C411.591 96.7507 411.782 96.868 412.046 96.868C412.589 96.868 413.175 96.362 413.806 95.35C414.451 94.338 414.994 93.084 415.434 91.588C415.874 90.0773 416.094 88.6473 416.094 87.298C416.094 86.726 416.035 86.33 415.918 86.11C415.801 85.8753 415.617 85.758 415.368 85.758ZM429.168 85.318C430.063 85.318 430.738 85.6113 431.192 86.198C431.662 86.77 431.896 87.606 431.896 88.706C431.896 89.9087 431.625 91.1847 431.082 92.534C430.554 93.8687 429.792 94.998 428.794 95.922C427.797 96.846 426.638 97.308 425.318 97.308C424.908 97.308 424.526 97.242 424.174 97.11C423.822 96.978 423.544 96.7873 423.338 96.538L422.744 98.65C422.656 98.958 422.612 99.222 422.612 99.442C422.612 99.8527 422.759 100.131 423.052 100.278C423.346 100.425 423.808 100.505 424.438 100.52L424.306 100.982L423.8 100.96C422.304 100.916 421.314 100.894 420.83 100.894C420.346 100.894 419.312 100.923 417.728 100.982L417.86 100.52C418.388 100.52 418.77 100.425 419.004 100.234C419.239 100.043 419.43 99.684 419.576 99.156L423.558 84.878C423.148 85.7873 422.678 86.6087 422.15 87.342C421.622 88.0607 420.977 88.8087 420.214 89.586L419.972 89.3C420.618 88.596 421.153 87.9873 421.578 87.474C422.004 86.946 422.429 86.308 422.854 85.56C423.294 84.7973 423.727 83.8733 424.152 82.788L424.218 82.524C425.406 82.436 426.499 82.2307 427.496 81.908L425.604 88.618C426.132 87.474 426.69 86.638 427.276 86.11C427.863 85.582 428.494 85.318 429.168 85.318ZM424.46 96.67C425.15 96.67 425.817 96.23 426.462 95.35C427.122 94.4553 427.658 93.3553 428.068 92.05C428.479 90.73 428.684 89.4833 428.684 88.31C428.684 87.6207 428.618 87.144 428.486 86.88C428.369 86.616 428.193 86.484 427.958 86.484C427.518 86.484 427.02 86.9093 426.462 87.76C425.905 88.6107 425.392 89.6887 424.922 90.994L423.448 96.164C423.727 96.5013 424.064 96.67 424.46 96.67ZM450.399 93.436L449.849 95.042C449.321 96.5527 448.331 97.308 446.879 97.308C446.028 97.308 445.441 97.044 445.119 96.516C444.957 96.2667 444.877 95.9367 444.877 95.526C444.877 95.042 444.987 94.47 445.207 93.81L447.187 87.87C447.304 87.4887 447.363 87.1953 447.363 86.99C447.363 86.6967 447.26 86.55 447.055 86.55C446.453 86.55 445.727 87.276 444.877 88.728C444.041 90.1653 443.197 92.2627 442.347 95.02V94.954L441.775 97H438.629L441.313 87.87C441.43 87.4887 441.489 87.188 441.489 86.968C441.489 86.6893 441.371 86.55 441.137 86.55C440.477 86.55 439.729 87.3127 438.893 88.838C438.071 90.3633 437.294 92.3507 436.561 94.8V94.778L435.989 97H432.887L435.571 87.496C435.644 87.2467 435.681 87.034 435.681 86.858C435.681 86.55 435.549 86.396 435.285 86.396C435.021 86.396 434.779 86.5353 434.559 86.814C434.353 87.078 434.133 87.518 433.899 88.134L433.481 89.256H433.063L433.657 87.584C433.95 86.7773 434.353 86.198 434.867 85.846C435.395 85.494 435.981 85.318 436.627 85.318C437.257 85.318 437.712 85.4793 437.991 85.802C438.269 86.1247 438.409 86.55 438.409 87.078C438.409 87.4593 438.343 87.8993 438.211 88.398L437.727 90.29C438.445 88.5007 439.179 87.2247 439.927 86.462C440.689 85.6993 441.599 85.318 442.655 85.318C443.813 85.318 444.393 85.89 444.393 87.034C444.393 87.4447 444.305 87.98 444.129 88.64L443.733 90.048C444.466 88.3027 445.207 87.078 445.955 86.374C446.717 85.67 447.59 85.318 448.573 85.318C449.189 85.318 449.643 85.472 449.937 85.78C450.23 86.088 450.377 86.506 450.377 87.034C450.377 87.518 450.274 88.0533 450.069 88.64L447.913 95.13C447.825 95.4087 447.781 95.6213 447.781 95.768C447.781 96.076 447.92 96.23 448.199 96.23C448.697 96.23 449.159 95.6507 449.585 94.492L449.981 93.436H450.399ZM461.694 87.056C461.694 88.2733 461.012 89.3367 459.648 90.246C458.284 91.1553 456.7 91.8593 454.896 92.358C454.808 92.8567 454.764 93.3553 454.764 93.854C454.764 94.6313 454.904 95.1813 455.182 95.504C455.476 95.8267 455.901 95.988 456.458 95.988C456.913 95.988 457.426 95.8487 457.998 95.57C458.57 95.2767 459.128 94.8147 459.67 94.184L460.022 94.36C459.494 95.1813 458.783 95.878 457.888 96.45C457.008 97.022 456.018 97.308 454.918 97.308C453.906 97.308 453.078 97.0367 452.432 96.494C451.787 95.9513 451.464 95.1887 451.464 94.206C451.464 92.9007 451.816 91.5513 452.52 90.158C453.224 88.7647 454.185 87.6133 455.402 86.704C456.62 85.78 457.954 85.318 459.406 85.318C460.081 85.318 460.631 85.472 461.056 85.78C461.482 86.0733 461.694 86.4987 461.694 87.056ZM458.922 85.736C458.497 85.736 458.013 86.0367 457.47 86.638C456.928 87.2393 456.429 88.024 455.974 88.992C455.52 89.9453 455.182 90.928 454.962 91.94C456.004 91.4853 456.81 90.994 457.382 90.466C457.969 89.938 458.431 89.3367 458.768 88.662C459.106 87.9727 459.274 87.2393 459.274 86.462C459.274 86.1833 459.245 85.9927 459.186 85.89C459.128 85.7873 459.04 85.736 458.922 85.736ZM474.009 93.436L473.459 95.042C472.931 96.5527 471.948 97.308 470.511 97.308C469.69 97.308 469.103 97.066 468.751 96.582C468.56 96.3033 468.465 95.9587 468.465 95.548C468.465 95.0787 468.582 94.4993 468.817 93.81L470.797 87.87C470.929 87.474 470.995 87.1587 470.995 86.924C470.995 86.5867 470.856 86.418 470.577 86.418C470.137 86.418 469.602 86.8653 468.971 87.76C468.355 88.6547 467.732 89.8353 467.101 91.302C466.47 92.754 465.92 94.2867 465.451 95.9L465.165 97H462.063L464.725 87.496C464.813 87.232 464.857 86.9973 464.857 86.792C464.857 86.528 464.732 86.396 464.483 86.396C464.204 86.396 463.955 86.528 463.735 86.792C463.53 87.0413 463.31 87.4887 463.075 88.134L462.657 89.256H462.239L462.833 87.584C463.112 86.7773 463.486 86.198 463.955 85.846C464.424 85.494 464.996 85.318 465.671 85.318C466.932 85.318 467.563 85.9193 467.563 87.122C467.563 87.5327 467.504 87.958 467.387 88.398L466.705 91.06C467.306 89.564 467.878 88.4053 468.421 87.584C468.978 86.748 469.536 86.1613 470.093 85.824C470.665 85.4867 471.296 85.318 471.985 85.318C473.305 85.318 473.965 85.9047 473.965 87.078C473.965 87.518 473.87 88.0387 473.679 88.64L471.523 95.13C471.435 95.394 471.391 95.6067 471.391 95.768C471.391 96.076 471.53 96.23 471.809 96.23C472.044 96.23 472.271 96.1053 472.491 95.856C472.726 95.6067 472.96 95.152 473.195 94.492L473.591 93.436H474.009ZM478.575 95.13C478.531 95.2767 478.509 95.4233 478.509 95.57C478.509 95.79 478.567 95.9587 478.685 96.076C478.802 96.1787 478.963 96.23 479.169 96.23C479.491 96.23 479.799 96.076 480.093 95.768C480.401 95.4453 480.672 94.9687 480.907 94.338L481.237 93.436H481.655L481.215 94.712C480.643 96.4427 479.543 97.308 477.915 97.308C477.167 97.308 476.602 97.1173 476.221 96.736C475.854 96.34 475.671 95.8047 475.671 95.13C475.671 94.7047 475.737 94.2647 475.869 93.81L478.091 86.066H476.111L476.221 85.626H478.223L479.169 82.348C480.415 82.3333 481.479 82.2307 482.359 82.04L481.325 85.626H483.811L483.745 86.066H481.193L478.575 95.13Z" fill="black" fill-opacity="0.54"/>
</svg>
