<svg width="26" height="26" viewBox="0 0 26 26" fill="none" xmlns="http://www.w3.org/2000/svg">
<path d="M3.75578 1.32025C1.96842 1.32025 0.799805 2.49392 0.799805 4.03655C0.799805 5.54511 1.9336 6.75226 3.68719 6.75226H3.72111C5.54344 6.75226 6.67754 5.54511 6.67754 4.03655C6.64347 2.49392 5.54344 1.32025 3.75578 1.32025Z" fill="#3D3D3D"/>
<path d="M1.10864 8.89862H6.33385V24.6189H1.10864V8.89862Z" fill="#3D3D3D"/>
<path d="M19.1593 8.52966C16.3405 8.52966 14.4503 11.1784 14.4503 11.1784V8.89862H9.22498V24.6189H14.45V15.8401C14.45 15.3701 14.4841 14.9009 14.6222 14.5648C14.9999 13.6263 15.8595 12.6541 17.3031 12.6541C19.1938 12.6541 19.9501 14.0957 19.9501 16.2091V24.6189H25.1748V15.6052C25.1748 10.7766 22.5969 8.52966 19.1593 8.52966Z" fill="#3D3D3D"/>
</svg>
