<svg width="50" height="46" viewBox="0 0 50 46" fill="none" xmlns="http://www.w3.org/2000/svg">
<rect y="30" width="50" height="15" fill="#3D3D3D"/>
<path d="M9.304 41.664C9.096 41.84 8.816 41.968 8.464 42.048C8.12 42.128 7.776 42.168 7.432 42.168C7 42.168 6.596 42.096 6.22 41.952C5.852 41.8 5.528 41.552 5.248 41.208C4.968 40.864 4.748 40.412 4.588 39.852C4.428 39.292 4.348 38.604 4.348 37.788C4.348 36.94 4.436 36.236 4.612 35.676C4.796 35.116 5.032 34.672 5.32 34.344C5.616 34.008 5.952 33.772 6.328 33.636C6.704 33.5 7.084 33.432 7.468 33.432C7.86 33.432 8.2 33.464 8.488 33.528C8.784 33.592 9.024 33.664 9.208 33.744L8.908 35.076C8.756 34.996 8.576 34.936 8.368 34.896C8.168 34.848 7.928 34.824 7.648 34.824C7.096 34.824 6.672 35.064 6.376 35.544C6.08 36.024 5.932 36.776 5.932 37.8C5.932 38.24 5.964 38.644 6.028 39.012C6.1 39.372 6.208 39.684 6.352 39.948C6.504 40.212 6.692 40.416 6.916 40.56C7.148 40.704 7.424 40.776 7.744 40.776C8.024 40.776 8.264 40.74 8.464 40.668C8.664 40.588 8.844 40.496 9.004 40.392L9.304 41.664ZM11.4125 37.8C11.4125 36.376 11.6565 35.292 12.1445 34.548C12.6325 33.804 13.3765 33.432 14.3765 33.432C14.8965 33.432 15.3445 33.536 15.7205 33.744C16.0965 33.944 16.4045 34.236 16.6445 34.62C16.8845 34.996 17.0605 35.456 17.1725 36C17.2925 36.536 17.3525 37.136 17.3525 37.8C17.3525 39.224 17.1005 40.308 16.5965 41.052C16.1005 41.796 15.3605 42.168 14.3765 42.168C13.8485 42.168 13.3965 42.068 13.0205 41.868C12.6525 41.66 12.3485 41.368 12.1085 40.992C11.8685 40.608 11.6925 40.148 11.5805 39.612C11.4685 39.068 11.4125 38.464 11.4125 37.8ZM12.9965 37.8C12.9965 38.224 13.0205 38.62 13.0685 38.988C13.1165 39.348 13.1965 39.66 13.3085 39.924C13.4205 40.188 13.5605 40.396 13.7285 40.548C13.9045 40.7 14.1205 40.776 14.3765 40.776C14.8405 40.776 15.1885 40.54 15.4205 40.068C15.6525 39.596 15.7685 38.84 15.7685 37.8C15.7685 37.392 15.7445 37.008 15.6965 36.648C15.6485 36.28 15.5685 35.964 15.4565 35.7C15.3525 35.428 15.2125 35.216 15.0365 35.064C14.8605 34.904 14.6405 34.824 14.3765 34.824C13.4565 34.824 12.9965 35.816 12.9965 37.8ZM22.9293 33.456L24.0213 33.876L20.5053 43.68L19.4013 43.26L22.9293 33.456ZM30.6289 37.62V38.46L26.9209 41.1L26.1769 40.14L28.4209 38.484L29.3089 38.052L28.4209 37.692L26.1289 36.036L26.8729 35.088L30.6289 37.62ZM33.513 33.6H37.713V34.992H35.025V37.056H37.461V38.448H35.025V40.608H37.761V42H33.513V33.6ZM43.5292 39.84C43.5292 39.584 43.4532 39.368 43.3012 39.192C43.1492 39.008 42.9572 38.836 42.7252 38.676C42.5012 38.516 42.2532 38.352 41.9812 38.184C41.7172 38.016 41.4692 37.82 41.2372 37.596C41.0132 37.372 40.8252 37.108 40.6732 36.804C40.5212 36.5 40.4452 36.128 40.4452 35.688C40.4452 35.28 40.5052 34.936 40.6252 34.656C40.7532 34.368 40.9252 34.136 41.1412 33.96C41.3572 33.776 41.6132 33.644 41.9092 33.564C42.2052 33.476 42.5212 33.432 42.8572 33.432C43.2652 33.432 43.6452 33.472 43.9972 33.552C44.3492 33.632 44.6412 33.74 44.8732 33.876L44.4052 35.208C44.2692 35.112 44.0652 35.024 43.7932 34.944C43.5292 34.864 43.2412 34.824 42.9292 34.824C42.6172 34.824 42.3772 34.888 42.2092 35.016C42.0412 35.144 41.9572 35.332 41.9572 35.58C41.9572 35.804 42.0332 36.004 42.1852 36.18C42.3372 36.348 42.5252 36.512 42.7492 36.672C42.9812 36.832 43.2292 37 43.4932 37.176C43.7652 37.344 44.0132 37.544 44.2372 37.776C44.4692 38 44.6612 38.268 44.8132 38.58C44.9652 38.884 45.0412 39.248 45.0412 39.672C45.0412 40.096 44.9772 40.464 44.8492 40.776C44.7292 41.088 44.5532 41.348 44.3212 41.556C44.0972 41.756 43.8252 41.908 43.5052 42.012C43.1852 42.116 42.8292 42.168 42.4372 42.168C41.9412 42.168 41.5052 42.12 41.1292 42.024C40.7612 41.928 40.4772 41.82 40.2772 41.7L40.7692 40.344C40.9292 40.44 41.1492 40.536 41.4292 40.632C41.7092 40.728 42.0092 40.776 42.3292 40.776C43.1292 40.776 43.5292 40.464 43.5292 39.84Z" fill="white"/>
<path d="M2.664 8.8C2.94133 8.748 3.24467 8.71333 3.574 8.696C3.92067 8.66133 4.26733 8.644 4.614 8.644C4.96067 8.62667 5.29867 8.618 5.628 8.618C5.97467 8.60067 6.29533 8.592 6.59 8.592C7.85533 8.592 8.93 8.80867 9.814 9.242C10.698 9.67533 11.4173 10.2993 11.972 11.114C12.5267 11.9113 12.9253 12.8733 13.168 14C13.4107 15.1267 13.532 16.3833 13.532 17.77C13.532 19.018 13.4107 20.214 13.168 21.358C12.9427 22.502 12.5527 23.5073 11.998 24.374C11.4433 25.2407 10.7067 25.934 9.788 26.454C8.88667 26.974 7.75133 27.234 6.382 27.234C6.15667 27.234 5.87067 27.2253 5.524 27.208C5.17733 27.208 4.81333 27.1907 4.432 27.156C4.068 27.1387 3.72133 27.1213 3.392 27.104C3.08 27.0867 2.83733 27.0607 2.664 27.026V8.8ZM6.694 10.386C6.52067 10.386 6.33 10.386 6.122 10.386C5.93133 10.386 5.74067 10.3947 5.55 10.412C5.35933 10.4293 5.17733 10.4467 5.004 10.464C4.848 10.4813 4.718 10.4987 4.614 10.516V25.336C4.68333 25.3533 4.80467 25.3707 4.978 25.388C5.16867 25.388 5.35933 25.3967 5.55 25.414C5.758 25.414 5.94867 25.4227 6.122 25.44C6.31267 25.44 6.45133 25.44 6.538 25.44C7.49133 25.44 8.28867 25.232 8.93 24.816C9.57133 24.4 10.074 23.8453 10.438 23.152C10.8193 22.4413 11.088 21.6267 11.244 20.708C11.4 19.772 11.478 18.784 11.478 17.744C11.478 16.8253 11.4087 15.924 11.27 15.04C11.1313 14.156 10.88 13.376 10.516 12.7C10.1693 12.0067 9.684 11.452 9.06 11.036C8.45333 10.6027 7.66467 10.386 6.694 10.386ZM16.0642 14.78C16.5668 14.468 17.1735 14.2253 17.8842 14.052C18.6122 13.8787 19.3748 13.792 20.1722 13.792C20.9002 13.792 21.4808 13.9047 21.9142 14.13C22.3648 14.338 22.7115 14.6327 22.9542 15.014C23.2142 15.378 23.3788 15.8027 23.4482 16.288C23.5348 16.756 23.5782 17.25 23.5782 17.77C23.5782 18.81 23.5522 19.824 23.5002 20.812C23.4655 21.8 23.4482 22.736 23.4482 23.62C23.4482 24.2787 23.4655 24.894 23.5002 25.466C23.5522 26.0207 23.6388 26.5493 23.7602 27.052H22.3302L21.8882 25.518H21.7842C21.5242 25.9687 21.1428 26.3587 20.6402 26.688C20.1375 27.0173 19.4615 27.182 18.6122 27.182C17.6762 27.182 16.9048 26.8613 16.2982 26.22C15.7088 25.5613 15.4142 24.66 15.4142 23.516C15.4142 22.7707 15.5355 22.1467 15.7782 21.644C16.0382 21.1413 16.3935 20.734 16.8442 20.422C17.3122 20.11 17.8582 19.8933 18.4822 19.772C19.1235 19.6333 19.8342 19.564 20.6142 19.564C20.7875 19.564 20.9608 19.564 21.1342 19.564C21.3075 19.564 21.4895 19.5727 21.6802 19.59C21.7322 19.0527 21.7582 18.576 21.7582 18.16C21.7582 17.172 21.6108 16.4787 21.3162 16.08C21.0215 15.6813 20.4842 15.482 19.7042 15.482C19.2188 15.482 18.6902 15.56 18.1182 15.716C17.5462 15.8547 17.0695 16.0367 16.6882 16.262L16.0642 14.78ZM21.7062 21.072C21.5328 21.0547 21.3595 21.046 21.1862 21.046C21.0128 21.0287 20.8395 21.02 20.6662 21.02C20.2502 21.02 19.8428 21.0547 19.4442 21.124C19.0455 21.1933 18.6902 21.3147 18.3782 21.488C18.0662 21.6613 17.8148 21.8953 17.6242 22.19C17.4508 22.4847 17.3642 22.8573 17.3642 23.308C17.3642 24.0013 17.5288 24.5387 17.8582 24.92C18.2048 25.3013 18.6468 25.492 19.1842 25.492C19.9122 25.492 20.4755 25.3187 20.8742 24.972C21.2728 24.6253 21.5502 24.244 21.7062 23.828V21.072ZM32.6883 27V19.278C32.6883 18.5847 32.6623 17.9953 32.6103 17.51C32.5756 17.0073 32.489 16.6 32.3503 16.288C32.2116 15.976 32.021 15.7507 31.7783 15.612C31.5356 15.456 31.215 15.378 30.8163 15.378C30.227 15.378 29.7243 15.612 29.3083 16.08C28.9096 16.5307 28.6323 17.0507 28.4763 17.64V27H26.6043V14H27.9303L28.2683 15.378H28.3463C28.7103 14.8753 29.1436 14.468 29.6463 14.156C30.149 13.844 30.7903 13.688 31.5703 13.688C32.229 13.688 32.7663 13.8353 33.1823 14.13C33.6156 14.4073 33.9536 14.91 34.1963 15.638C34.5083 15.0313 34.9503 14.5547 35.5223 14.208C36.1116 13.8613 36.753 13.688 37.4463 13.688C38.0183 13.688 38.5036 13.766 38.9023 13.922C39.3183 14.0607 39.6476 14.3207 39.8903 14.702C40.1503 15.066 40.341 15.56 40.4623 16.184C40.5836 16.7907 40.6443 17.562 40.6443 18.498V27H38.7723V18.732C38.7723 17.6053 38.6596 16.7647 38.4343 16.21C38.2263 15.6553 37.7323 15.378 36.9523 15.378C36.2936 15.378 35.765 15.586 35.3663 16.002C34.985 16.4007 34.7163 16.9467 34.5603 17.64V27H32.6883ZM43.8519 14H45.7239V27H43.8519V14ZM43.5139 10.048C43.5139 9.632 43.6265 9.294 43.8519 9.034C44.0945 8.774 44.4065 8.644 44.7879 8.644C45.1692 8.644 45.4812 8.774 45.7239 9.034C45.9839 9.27667 46.1139 9.61467 46.1139 10.048C46.1139 10.464 45.9839 10.7933 45.7239 11.036C45.4812 11.2613 45.1692 11.374 44.7879 11.374C44.4065 11.374 44.0945 11.2527 43.8519 11.01C43.6265 10.7673 43.5139 10.4467 43.5139 10.048Z" fill="#3D3D3D"/>
</svg>
