<svg width="523" height="134" viewBox="0 0 523 134" fill="none" xmlns="http://www.w3.org/2000/svg">
<path d="M64.0848 0C76.8565 0 88.0459 2.6096 97.653 7.82881C107.26 13.048 114.72 20.6341 120.032 30.587C125.344 40.4185 128 52.192 128 65.9076C128 79.2591 125.287 91.0933 119.862 101.41C114.437 111.727 106.864 119.738 97.1444 125.443C87.4243 131.148 76.3479 134 63.9152 134C51.1435 134 39.9541 131.39 30.347 126.171C20.74 120.952 13.2804 113.427 7.96821 103.595C2.65607 93.6422 0 81.808 0 68.0924C0 54.7409 2.71258 42.9067 8.13775 32.5897C13.5629 22.2727 21.1355 14.2618 30.8556 8.55708C40.5757 2.85236 51.6521 0 64.0848 0ZM63.4066 3.27717C57.8684 3.27717 52.9519 6.00815 48.657 11.4701C44.4751 16.8107 41.2539 24.3361 38.9934 34.0462C36.7329 43.7563 35.6027 54.8623 35.6027 67.3641C35.6027 79.9873 36.9024 91.0933 39.502 100.682C42.1016 110.271 45.6053 117.675 50.0133 122.894C54.4212 128.113 59.2812 130.723 64.5934 130.723C70.1316 130.723 74.9916 128.053 79.1735 122.712C83.4684 117.25 86.7461 109.664 89.0066 99.9538C91.2671 90.2437 92.3974 79.1377 92.3974 66.6359C92.3974 54.0127 91.0976 42.9067 88.498 33.3179C85.8985 23.7292 82.3947 16.3252 77.9868 11.106C73.5788 5.88678 68.7188 3.27717 63.4066 3.27717Z" fill="black"/>
<path d="M159.86 39.848C165.052 39.848 168.939 41.1533 171.52 43.764C174.101 46.3453 175.392 50.1147 175.392 55.072C175.392 58.2693 174.761 61.0707 173.5 63.476C172.239 65.8813 170.405 67.744 168 69.064C165.624 70.3547 162.779 71 159.464 71L156.912 70.956C155.269 70.8973 154.067 70.868 153.304 70.868C150.899 70.868 149.08 70.912 147.848 71V70.12C148.904 70.0613 149.667 69.944 150.136 69.768C150.635 69.592 150.972 69.2547 151.148 68.756C151.324 68.2573 151.412 67.4507 151.412 66.336V44.512C151.412 43.3973 151.324 42.5907 151.148 42.092C150.972 41.5933 150.635 41.256 150.136 41.08C149.667 40.904 148.904 40.7867 147.848 40.728V39.848C148.875 39.936 150.297 39.98 152.116 39.98L155.856 39.936C157.851 39.8773 159.185 39.848 159.86 39.848ZM158.76 40.64C157.851 40.64 157.161 40.7427 156.692 40.948C156.252 41.1533 155.944 41.52 155.768 42.048C155.592 42.576 155.504 43.368 155.504 44.424V66.424C155.504 67.48 155.592 68.272 155.768 68.8C155.944 69.328 156.252 69.6947 156.692 69.9C157.161 70.1053 157.865 70.208 158.804 70.208C161.913 70.208 164.363 69.6507 166.152 68.536C167.941 67.392 169.188 65.7347 169.892 63.564C170.625 61.3933 170.992 58.6213 170.992 55.248C170.992 51.8747 170.596 49.132 169.804 47.02C169.012 44.8787 167.721 43.28 165.932 42.224C164.172 41.168 161.781 40.64 158.76 40.64ZM184.754 71.308C182.906 71.308 181.527 70.8533 180.618 69.944C179.738 69.0053 179.298 67.7147 179.298 66.072C179.298 64.752 179.65 63.6667 180.354 62.816C181.087 61.9653 181.938 61.2907 182.906 60.792C183.903 60.2933 185.209 59.7653 186.822 59.208C188.465 58.6507 189.682 58.1373 190.474 57.668C191.266 57.1987 191.662 56.568 191.662 55.776V53.048C191.662 51.3467 191.295 50.188 190.562 49.572C189.858 48.9267 188.861 48.604 187.57 48.604C185.517 48.604 184.065 49.132 183.214 50.188C183.801 50.3347 184.285 50.6427 184.666 51.112C185.077 51.5813 185.282 52.168 185.282 52.872C185.282 53.6053 185.047 54.192 184.578 54.632C184.109 55.0427 183.507 55.248 182.774 55.248C181.953 55.248 181.337 54.9987 180.926 54.5C180.515 53.972 180.31 53.3413 180.31 52.608C180.31 51.904 180.471 51.3173 180.794 50.848C181.146 50.3787 181.659 49.9093 182.334 49.44C183.038 48.9413 183.933 48.5307 185.018 48.208C186.103 47.8853 187.291 47.724 188.582 47.724C190.87 47.724 192.601 48.2667 193.774 49.352C194.507 50.0267 194.991 50.848 195.226 51.816C195.49 52.7547 195.622 54.0013 195.622 55.556V67.788C195.622 68.5213 195.725 69.0493 195.93 69.372C196.135 69.6947 196.487 69.856 196.986 69.856C197.338 69.856 197.661 69.7827 197.954 69.636C198.277 69.46 198.614 69.2253 198.966 68.932L199.45 69.68C198.687 70.2667 198.027 70.692 197.47 70.956C196.942 71.1907 196.267 71.308 195.446 71.308C194.038 71.308 193.055 70.956 192.498 70.252C191.941 69.548 191.662 68.5947 191.662 67.392C190.782 68.8587 189.77 69.8853 188.626 70.472C187.482 71.0293 186.191 71.308 184.754 71.308ZM186.69 69.548C188.626 69.548 190.283 68.4333 191.662 66.204V57.58C191.398 57.9907 191.031 58.328 190.562 58.592C190.093 58.856 189.374 59.208 188.406 59.648C187.291 60.1173 186.382 60.572 185.678 61.012C185.003 61.4227 184.417 61.9947 183.918 62.728C183.419 63.4613 183.17 64.4 183.17 65.544C183.17 66.864 183.493 67.8613 184.138 68.536C184.783 69.2107 185.634 69.548 186.69 69.548ZM234.564 66.908C234.564 68.1107 234.813 68.9467 235.312 69.416C235.811 69.856 236.676 70.076 237.908 70.076V71C235.209 70.8827 233.449 70.824 232.628 70.824C231.807 70.824 230.164 70.8827 227.7 71V70.076C228.785 70.076 229.533 69.856 229.944 69.416C230.384 68.9467 230.604 68.1107 230.604 66.908V54.192C230.604 53.0773 230.531 52.1827 230.384 51.508C230.267 50.804 229.959 50.232 229.46 49.792C228.991 49.352 228.257 49.132 227.26 49.132C226.145 49.132 225.133 49.484 224.224 50.188C223.315 50.892 222.596 51.86 222.068 53.092C221.569 54.2947 221.32 55.6293 221.32 57.096V66.908C221.32 68.1107 221.569 68.9467 222.068 69.416C222.567 69.856 223.432 70.076 224.664 70.076V71C221.965 70.8827 220.205 70.824 219.384 70.824C218.563 70.824 216.92 70.8827 214.456 71V70.076C215.541 70.076 216.289 69.856 216.7 69.416C217.14 68.9467 217.36 68.1107 217.36 66.908V54.192C217.36 53.0773 217.287 52.1827 217.14 51.508C217.023 50.804 216.715 50.232 216.216 49.792C215.747 49.352 215.013 49.132 214.016 49.132C212.901 49.132 211.889 49.484 210.98 50.188C210.071 50.892 209.352 51.86 208.824 53.092C208.325 54.324 208.076 55.6733 208.076 57.14V66.908C208.076 68.1107 208.281 68.9467 208.692 69.416C209.132 69.856 209.895 70.076 210.98 70.076V71C208.516 70.8827 206.873 70.824 206.052 70.824C205.231 70.824 203.471 70.8827 200.772 71V70.076C202.004 70.076 202.869 69.856 203.368 69.416C203.867 68.9467 204.116 68.1107 204.116 66.908V53.136C204.116 51.7867 203.867 50.804 203.368 50.188C202.869 49.572 202.004 49.264 200.772 49.264V48.34C201.711 48.428 202.62 48.472 203.5 48.472C205.348 48.472 206.873 48.2667 208.076 47.856V53.048C208.78 51.2293 209.777 49.8947 211.068 49.044C212.359 48.164 213.767 47.724 215.292 47.724C217.287 47.724 218.812 48.2813 219.868 49.396C220.601 50.1587 221.056 51.332 221.232 52.916C221.965 51.068 222.977 49.748 224.268 48.956C225.559 48.1347 226.981 47.724 228.536 47.724C230.531 47.724 232.056 48.2813 233.112 49.396C233.64 49.9827 234.007 50.7307 234.212 51.64C234.447 52.5493 234.564 53.7227 234.564 55.16V66.908ZM244.847 37.34C245.609 37.34 246.269 37.6187 246.827 38.176C247.384 38.7333 247.663 39.3933 247.663 40.156C247.663 40.9187 247.384 41.5787 246.827 42.136C246.269 42.6933 245.609 42.972 244.847 42.972C244.084 42.972 243.424 42.6933 242.867 42.136C242.309 41.5787 242.031 40.9187 242.031 40.156C242.031 39.3933 242.309 38.7333 242.867 38.176C243.424 37.6187 244.084 37.34 244.847 37.34ZM247.135 66.908C247.135 68.1107 247.384 68.9467 247.883 69.416C248.381 69.856 249.247 70.076 250.479 70.076V71C247.78 70.8827 246.005 70.824 245.155 70.824C244.304 70.824 242.529 70.8827 239.831 71V70.076C241.063 70.076 241.928 69.856 242.427 69.416C242.925 68.9467 243.175 68.1107 243.175 66.908V53.136C243.175 51.7867 242.925 50.804 242.427 50.188C241.928 49.572 241.063 49.264 239.831 49.264V48.34C240.769 48.428 241.679 48.472 242.559 48.472C244.407 48.472 245.932 48.2667 247.135 47.856V66.908ZM259.717 66.908C259.717 68.1107 259.967 68.9467 260.465 69.416C260.964 69.856 261.829 70.076 263.061 70.076V71C260.363 70.8827 258.588 70.824 257.737 70.824C256.887 70.824 255.112 70.8827 252.413 71V70.076C253.645 70.076 254.511 69.856 255.009 69.416C255.508 68.9467 255.757 68.1107 255.757 66.908V41.784C255.757 40.4347 255.508 39.452 255.009 38.836C254.511 38.22 253.645 37.912 252.413 37.912V36.988C253.323 37.076 254.232 37.12 255.141 37.12C256.989 37.12 258.515 36.9147 259.717 36.504V66.908ZM275.661 47.724C278.653 47.724 281.059 48.7213 282.877 50.716C284.725 52.6813 285.649 55.6733 285.649 59.692C285.649 63.7107 284.725 66.7027 282.877 68.668C281.059 70.6333 278.653 71.616 275.661 71.616C272.669 71.616 270.249 70.6333 268.401 68.668C266.583 66.7027 265.673 63.7107 265.673 59.692C265.673 55.6733 266.583 52.6813 268.401 50.716C270.249 48.7213 272.669 47.724 275.661 47.724ZM275.661 48.604C273.901 48.604 272.508 49.5133 271.481 51.332C270.455 53.1213 269.941 55.908 269.941 59.692C269.941 63.476 270.455 66.2627 271.481 68.052C272.508 69.8413 273.901 70.736 275.661 70.736C277.421 70.736 278.815 69.8413 279.841 68.052C280.868 66.2627 281.381 63.476 281.381 59.692C281.381 55.908 280.868 53.1213 279.841 51.332C278.815 49.5133 277.421 48.604 275.661 48.604ZM295.553 66.908C295.553 68.1107 295.803 68.9467 296.301 69.416C296.8 69.856 297.665 70.076 298.897 70.076V71C296.199 70.8827 294.424 70.824 293.573 70.824C292.723 70.824 290.948 70.8827 288.249 71V70.076C289.481 70.076 290.347 69.856 290.845 69.416C291.344 68.9467 291.593 68.1107 291.593 66.908V41.784C291.593 40.4347 291.344 39.452 290.845 38.836C290.347 38.22 289.481 37.912 288.249 37.912V36.988C289.159 37.076 290.068 37.12 290.977 37.12C292.825 37.12 294.351 36.9147 295.553 36.504V66.908ZM307.043 71.308C305.195 71.308 303.816 70.8533 302.907 69.944C302.027 69.0053 301.587 67.7147 301.587 66.072C301.587 64.752 301.939 63.6667 302.643 62.816C303.376 61.9653 304.227 61.2907 305.195 60.792C306.192 60.2933 307.498 59.7653 309.111 59.208C310.754 58.6507 311.971 58.1373 312.763 57.668C313.555 57.1987 313.951 56.568 313.951 55.776V53.048C313.951 51.3467 313.584 50.188 312.851 49.572C312.147 48.9267 311.15 48.604 309.859 48.604C307.806 48.604 306.354 49.132 305.503 50.188C306.09 50.3347 306.574 50.6427 306.955 51.112C307.366 51.5813 307.571 52.168 307.571 52.872C307.571 53.6053 307.336 54.192 306.867 54.632C306.398 55.0427 305.796 55.248 305.063 55.248C304.242 55.248 303.626 54.9987 303.215 54.5C302.804 53.972 302.599 53.3413 302.599 52.608C302.599 51.904 302.76 51.3173 303.083 50.848C303.435 50.3787 303.948 49.9093 304.623 49.44C305.327 48.9413 306.222 48.5307 307.307 48.208C308.392 47.8853 309.58 47.724 310.871 47.724C313.159 47.724 314.89 48.2667 316.063 49.352C316.796 50.0267 317.28 50.848 317.515 51.816C317.779 52.7547 317.911 54.0013 317.911 55.556V67.788C317.911 68.5213 318.014 69.0493 318.219 69.372C318.424 69.6947 318.776 69.856 319.275 69.856C319.627 69.856 319.95 69.7827 320.243 69.636C320.566 69.46 320.903 69.2253 321.255 68.932L321.739 69.68C320.976 70.2667 320.316 70.692 319.759 70.956C319.231 71.1907 318.556 71.308 317.735 71.308C316.327 71.308 315.344 70.956 314.787 70.252C314.23 69.548 313.951 68.5947 313.951 67.392C313.071 68.8587 312.059 69.8853 310.915 70.472C309.771 71.0293 308.48 71.308 307.043 71.308ZM308.979 69.548C310.915 69.548 312.572 68.4333 313.951 66.204V57.58C313.687 57.9907 313.32 58.328 312.851 58.592C312.382 58.856 311.663 59.208 310.695 59.648C309.58 60.1173 308.671 60.572 307.967 61.012C307.292 61.4227 306.706 61.9947 306.207 62.728C305.708 63.4613 305.459 64.4 305.459 65.544C305.459 66.864 305.782 67.8613 306.427 68.536C307.072 69.2107 307.923 69.548 308.979 69.548ZM348.551 39.232C351.337 39.232 353.772 39.8627 355.855 41.124C357.967 42.3853 359.595 44.2187 360.739 46.624C361.912 49 362.499 51.8453 362.499 55.16C362.499 58.3867 361.897 61.2467 360.695 63.74C359.521 66.2333 357.864 68.1693 355.723 69.548C353.611 70.9267 351.205 71.616 348.507 71.616C345.72 71.616 343.271 70.9853 341.159 69.724C339.076 68.4627 337.448 66.644 336.275 64.268C335.131 61.8627 334.559 59.0027 334.559 55.688C334.559 52.4613 335.145 49.6013 336.319 47.108C337.521 44.6147 339.179 42.6787 341.291 41.3C343.432 39.9213 345.852 39.232 348.551 39.232ZM348.375 40.024C346.497 40.024 344.84 40.684 343.403 42.004C341.995 43.2947 340.895 45.1133 340.103 47.46C339.34 49.8067 338.959 52.4907 338.959 55.512C338.959 58.5627 339.384 61.2467 340.235 63.564C341.115 65.8813 342.288 67.6707 343.755 68.932C345.221 70.1933 346.864 70.824 348.683 70.824C350.56 70.824 352.203 70.1787 353.611 68.888C355.048 67.568 356.148 65.7347 356.911 63.388C357.703 61.0413 358.099 58.3573 358.099 55.336C358.099 52.2853 357.659 49.6013 356.779 47.284C355.928 44.9667 354.769 43.1773 353.303 41.916C351.836 40.6547 350.193 40.024 348.375 40.024ZM386.136 66.204C386.136 67.5533 386.385 68.536 386.884 69.152C387.383 69.768 388.248 70.076 389.48 70.076V71C388.571 70.912 387.661 70.868 386.752 70.868C384.904 70.868 383.379 71.0733 382.176 71.484V67.568C381.648 68.888 380.856 69.9 379.8 70.604C378.744 71.2787 377.453 71.616 375.928 71.616C373.112 71.616 370.897 70.604 369.284 68.58C367.7 66.556 366.923 63.5933 366.952 59.692C366.952 57.14 367.392 54.9693 368.272 53.18C369.181 51.3613 370.384 49.9973 371.88 49.088C373.405 48.1787 375.077 47.724 376.896 47.724C378.011 47.724 379.023 47.944 379.932 48.384C380.871 48.7947 381.619 49.44 382.176 50.32V41.784C382.176 40.4347 381.927 39.452 381.428 38.836C380.929 38.22 380.064 37.912 378.832 37.912V36.988C379.771 37.076 380.68 37.12 381.56 37.12C383.408 37.12 384.933 36.9147 386.136 36.504V66.204ZM377.204 70.296C378.348 70.296 379.375 69.856 380.284 68.976C381.193 68.096 381.824 66.8493 382.176 65.236V52.124C381.384 49.8653 379.741 48.736 377.248 48.736C375.429 48.736 373.963 49.6747 372.848 51.552C371.733 53.4 371.191 56.1133 371.22 59.692C371.191 63.212 371.689 65.8667 372.716 67.656C373.743 69.416 375.239 70.296 377.204 70.296ZM411.658 66.248C411.658 67.5973 411.908 68.58 412.406 69.196C412.905 69.812 413.77 70.12 415.002 70.12V71.044C414.093 70.956 413.184 70.912 412.274 70.912C410.426 70.912 408.901 71.1173 407.698 71.528V66.336C406.994 68.1547 405.997 69.4893 404.706 70.34C403.416 71.1907 402.008 71.616 400.482 71.616C398.488 71.616 396.962 71.0587 395.906 69.944C395.378 69.3573 394.997 68.6093 394.762 67.7C394.557 66.7907 394.454 65.6173 394.454 64.18V53.136C394.454 51.7867 394.205 50.804 393.706 50.188C393.208 49.572 392.342 49.264 391.11 49.264V48.34C392.02 48.428 392.929 48.472 393.838 48.472C395.686 48.472 397.212 48.2667 398.414 47.856V65.148C398.414 66.2627 398.473 67.172 398.59 67.876C398.737 68.5507 399.045 69.108 399.514 69.548C400.013 69.988 400.761 70.208 401.758 70.208C402.873 70.208 403.885 69.856 404.794 69.152C405.704 68.448 406.408 67.4947 406.906 66.292C407.434 65.06 407.698 63.7107 407.698 62.244V53.136C407.698 51.7867 407.449 50.804 406.95 50.188C406.452 49.572 405.586 49.264 404.354 49.264V48.34C405.264 48.428 406.173 48.472 407.082 48.472C408.93 48.472 410.456 48.2667 411.658 47.856V66.248ZM430.933 47.724C432.106 47.724 433.059 48.0613 433.793 48.736C434.555 49.4107 434.937 50.232 434.937 51.2C434.937 51.9627 434.702 52.6227 434.233 53.18C433.793 53.708 433.191 53.972 432.429 53.972C431.783 53.972 431.226 53.7667 430.757 53.356C430.317 52.9453 430.097 52.388 430.097 51.684C430.097 50.716 430.595 49.924 431.593 49.308C431.387 49.0147 431.079 48.868 430.669 48.868C429.525 48.868 428.483 49.3227 427.545 50.232C426.606 51.112 425.873 52.1973 425.345 53.488C424.817 54.7787 424.553 55.996 424.553 57.14V66.468C424.553 67.8173 424.934 68.756 425.697 69.284C426.489 69.812 427.662 70.076 429.217 70.076V71L428.161 70.956C425.169 70.868 423.262 70.824 422.441 70.824C421.678 70.824 419.947 70.8827 417.249 71V70.076C418.481 70.076 419.346 69.856 419.845 69.416C420.343 68.9467 420.593 68.1107 420.593 66.908V53.136C420.593 51.7867 420.343 50.804 419.845 50.188C419.346 49.572 418.481 49.264 417.249 49.264V48.34C418.187 48.428 419.097 48.472 419.977 48.472C421.825 48.472 423.35 48.2667 424.553 47.856V53.356C425.081 51.8893 425.917 50.584 427.061 49.44C428.234 48.296 429.525 47.724 430.933 47.724ZM446.763 47.724C449.755 47.724 452.16 48.7213 453.979 50.716C455.827 52.6813 456.751 55.6733 456.751 59.692C456.751 63.7107 455.827 66.7027 453.979 68.668C452.16 70.6333 449.755 71.616 446.763 71.616C443.771 71.616 441.351 70.6333 439.503 68.668C437.684 66.7027 436.775 63.7107 436.775 59.692C436.775 55.6733 437.684 52.6813 439.503 50.716C441.351 48.7213 443.771 47.724 446.763 47.724ZM446.763 48.604C445.003 48.604 443.61 49.5133 442.583 51.332C441.556 53.1213 441.043 55.908 441.043 59.692C441.043 63.476 441.556 66.2627 442.583 68.052C443.61 69.8413 445.003 70.736 446.763 70.736C448.523 70.736 449.916 69.8413 450.943 68.052C451.97 66.2627 452.483 63.476 452.483 59.692C452.483 55.908 451.97 53.1213 450.943 51.332C449.916 49.5133 448.523 48.604 446.763 48.604ZM474.873 47.724C476.926 47.724 478.481 48.2813 479.537 49.396C480.094 49.9827 480.49 50.716 480.725 51.596C480.959 52.476 481.077 53.664 481.077 55.16V66.908C481.077 68.1107 481.326 68.9467 481.825 69.416C482.323 69.856 483.189 70.076 484.421 70.076V71C481.722 70.8827 479.962 70.824 479.141 70.824C478.319 70.824 476.677 70.8827 474.213 71V70.076C475.298 70.076 476.046 69.856 476.457 69.416C476.897 68.9467 477.117 68.1107 477.117 66.908V54.192C477.117 52.5493 476.882 51.3027 476.413 50.452C475.943 49.572 474.99 49.132 473.553 49.132C472.35 49.132 471.279 49.484 470.341 50.188C469.402 50.892 468.669 51.86 468.141 53.092C467.642 54.2947 467.393 55.644 467.393 57.14V66.908C467.393 68.1107 467.598 68.9467 468.009 69.416C468.449 69.856 469.211 70.076 470.297 70.076V71C467.833 70.8827 466.19 70.824 465.369 70.824C464.547 70.824 462.787 70.8827 460.089 71V70.076C461.321 70.076 462.186 69.856 462.685 69.416C463.183 68.9467 463.433 68.1107 463.433 66.908V53.136C463.433 51.7867 463.183 50.804 462.685 50.188C462.186 49.572 461.321 49.264 460.089 49.264V48.34C461.027 48.428 461.937 48.472 462.817 48.472C464.665 48.472 466.19 48.2667 467.393 47.856V53.048C468.126 51.1707 469.138 49.8213 470.428 49C471.749 48.1493 473.23 47.724 474.873 47.724ZM499.41 47.724C501.904 47.724 503.913 48.7507 505.438 50.804C506.993 52.8573 507.77 55.82 507.77 59.692C507.77 62.244 507.33 64.4147 506.45 66.204C505.57 67.9933 504.382 69.3427 502.886 70.252C501.42 71.1613 499.777 71.616 497.958 71.616C496.873 71.616 495.817 71.396 494.79 70.956C493.793 70.516 492.913 69.8853 492.15 69.064L489.026 71.704L488.278 71.396C488.484 70.6627 488.586 69.812 488.586 68.844V41.828C488.586 40.4787 488.337 39.496 487.838 38.88C487.34 38.264 486.474 37.956 485.242 37.956V37.032C486.181 37.12 487.09 37.164 487.97 37.164C489.818 37.164 491.344 36.9587 492.546 36.548V52.432C493.192 50.936 494.116 49.7773 495.318 48.956C496.55 48.1347 497.914 47.724 499.41 47.724ZM497.606 70.604C499.572 70.604 501.038 69.724 502.006 67.964C503.004 66.1747 503.502 63.4173 503.502 59.692C503.502 56.1133 503.062 53.444 502.182 51.684C501.302 49.924 499.953 49.044 498.134 49.044C496.902 49.044 495.773 49.528 494.746 50.496C493.72 51.4347 492.986 52.7693 492.546 54.5V68.448C493.221 69.152 493.998 69.6947 494.878 70.076C495.758 70.428 496.668 70.604 497.606 70.604ZM516.151 37.34C516.914 37.34 517.574 37.6187 518.131 38.176C518.689 38.7333 518.967 39.3933 518.967 40.156C518.967 40.9187 518.689 41.5787 518.131 42.136C517.574 42.6933 516.914 42.972 516.151 42.972C515.389 42.972 514.729 42.6933 514.171 42.136C513.614 41.5787 513.335 40.9187 513.335 40.156C513.335 39.3933 513.614 38.7333 514.171 38.176C514.729 37.6187 515.389 37.34 516.151 37.34ZM518.439 66.908C518.439 68.1107 518.689 68.9467 519.187 69.416C519.686 69.856 520.551 70.076 521.783 70.076V71C519.085 70.8827 517.31 70.824 516.459 70.824C515.609 70.824 513.834 70.8827 511.135 71V70.076C512.367 70.076 513.233 69.856 513.731 69.416C514.23 68.9467 514.479 68.1107 514.479 66.908V53.136C514.479 51.7867 514.23 50.804 513.731 50.188C513.233 49.572 512.367 49.264 511.135 49.264V48.34C512.074 48.428 512.983 48.472 513.863 48.472C515.711 48.472 517.237 48.2667 518.439 47.856V66.908Z" fill="black"/>
<path d="M163.146 94.032C163.381 93.1667 163.498 92.5433 163.498 92.162C163.498 91.7367 163.373 91.436 163.124 91.26C162.875 91.0693 162.442 90.9373 161.826 90.864L161.936 90.424C162.479 90.468 163.263 90.49 164.29 90.49C165.097 90.49 165.742 90.468 166.226 90.424L166.116 90.864C165.617 90.9373 165.229 91.062 164.95 91.238C164.671 91.414 164.437 91.6927 164.246 92.074C164.07 92.4553 163.887 93.02 163.696 93.768L162.2 99.598C161.672 101.622 160.953 103.177 160.044 104.262C159.501 104.893 158.834 105.391 158.042 105.758C157.265 106.125 156.429 106.308 155.534 106.308C154.463 106.308 153.569 106.161 152.85 105.868C152.131 105.56 151.596 105.127 151.244 104.57C150.848 103.998 150.65 103.316 150.65 102.524C150.65 101.82 150.811 100.867 151.134 99.664L152.96 92.756C153.077 92.2573 153.136 91.9053 153.136 91.7C153.136 91.3773 153.026 91.1647 152.806 91.062C152.601 90.9593 152.219 90.8933 151.662 90.864L151.794 90.424C152.542 90.468 153.752 90.49 155.424 90.49C156.788 90.49 157.925 90.468 158.834 90.424L158.702 90.864C158.159 90.8933 157.756 90.952 157.492 91.04C157.243 91.128 157.037 91.2967 156.876 91.546C156.729 91.7953 156.583 92.1987 156.436 92.756L154.5 100.038C154.148 101.329 153.972 102.399 153.972 103.25C153.972 104.013 154.133 104.585 154.456 104.966C154.779 105.347 155.277 105.538 155.952 105.538C157.492 105.538 158.702 105.039 159.582 104.042C160.477 103.045 161.159 101.644 161.628 99.84L163.146 94.032ZM180.027 90.116C180.643 90.116 181.12 90.3067 181.457 90.688C181.809 91.0693 181.985 91.546 181.985 92.118C181.985 92.734 181.802 93.2473 181.435 93.658C181.069 94.054 180.599 94.252 180.027 94.252C179.573 94.252 179.221 94.12 178.971 93.856C178.722 93.592 178.597 93.2327 178.597 92.778C178.612 92.294 178.773 91.854 179.081 91.458C179.389 91.062 179.785 90.7833 180.269 90.622C180.196 90.5633 180.071 90.534 179.895 90.534C179.397 90.534 178.92 90.7027 178.465 91.04C177.908 91.48 177.277 92.2133 176.573 93.24C175.869 94.2667 175.18 95.5207 174.505 97.002L175.231 103.25C175.305 103.719 175.437 104.086 175.627 104.35C175.833 104.614 176.119 104.746 176.485 104.746C176.837 104.746 177.131 104.643 177.365 104.438C177.6 104.218 177.805 103.866 177.981 103.382L178.355 102.26H178.795L178.223 103.954C177.93 104.775 177.527 105.377 177.013 105.758C176.515 106.125 175.899 106.308 175.165 106.308C174.036 106.308 173.215 106.015 172.701 105.428C172.203 104.827 171.887 103.976 171.755 102.876L171.447 100.324C170.875 101.409 170.223 102.429 169.489 103.382C168.756 104.321 168.052 105.047 167.377 105.56C166.732 106.059 166.05 106.308 165.331 106.308C164.715 106.308 164.239 106.117 163.901 105.736C163.564 105.355 163.395 104.878 163.395 104.306C163.395 103.69 163.579 103.184 163.945 102.788C164.312 102.377 164.781 102.172 165.353 102.172C165.793 102.172 166.138 102.304 166.387 102.568C166.637 102.817 166.761 103.162 166.761 103.602C166.761 104.101 166.607 104.555 166.299 104.966C166.006 105.362 165.61 105.641 165.111 105.802C165.17 105.861 165.295 105.89 165.485 105.89C165.94 105.89 166.424 105.721 166.937 105.384C167.568 104.944 168.279 104.225 169.071 103.228C169.878 102.231 170.641 101.028 171.359 99.62L170.567 93.108C170.45 92.0813 170.039 91.568 169.335 91.568C168.998 91.568 168.705 91.6853 168.455 91.92C168.221 92.1547 168.015 92.5287 167.839 93.042L167.465 94.164H167.025L167.597 92.47C167.891 91.6487 168.301 91.0547 168.829 90.688C169.357 90.3067 170.017 90.116 170.809 90.116C171.865 90.116 172.635 90.4093 173.119 90.996C173.618 91.5827 173.941 92.4333 174.087 93.548L174.417 96.298C174.931 95.1687 175.51 94.12 176.155 93.152C176.815 92.1693 177.439 91.4213 178.025 90.908C178.685 90.38 179.353 90.116 180.027 90.116ZM202.821 95.682C202.821 97.3687 202.411 99.004 201.589 100.588C200.768 102.172 199.536 103.47 197.893 104.482C196.265 105.494 194.293 106 191.975 106L190.897 105.978C190.047 105.949 189.299 105.934 188.653 105.934C187.231 105.934 186.131 105.956 185.353 106L185.419 105.56C185.918 105.531 186.292 105.472 186.541 105.384C186.805 105.296 187.011 105.127 187.157 104.878C187.319 104.614 187.473 104.211 187.619 103.668L190.501 92.756C190.619 92.36 190.677 92.0447 190.677 91.81C190.677 91.4873 190.567 91.2527 190.347 91.106C190.142 90.9593 189.768 90.8787 189.225 90.864L189.291 90.424C189.951 90.468 190.919 90.49 192.195 90.49H192.899C194.439 90.446 195.532 90.424 196.177 90.424C198.333 90.424 199.976 90.8713 201.105 91.766C202.249 92.646 202.821 93.9513 202.821 95.682ZM191.975 105.604C193.471 105.604 194.769 105.083 195.869 104.042C196.969 103.001 197.805 101.666 198.377 100.038C198.964 98.3953 199.257 96.7087 199.257 94.978C199.257 93.5993 198.971 92.5653 198.399 91.876C197.827 91.172 196.925 90.82 195.693 90.82C195.312 90.82 195.026 90.8713 194.835 90.974C194.659 91.062 194.513 91.2307 194.395 91.48C194.278 91.7293 194.146 92.14 193.999 92.712L191.117 103.712C190.956 104.357 190.875 104.761 190.875 104.922C190.875 105.171 190.956 105.347 191.117 105.45C191.293 105.553 191.579 105.604 191.975 105.604ZM213.458 96.056C213.458 97.2733 212.776 98.3367 211.412 99.246C210.048 100.155 208.464 100.859 206.66 101.358C206.572 101.857 206.528 102.355 206.528 102.854C206.528 103.631 206.667 104.181 206.946 104.504C207.239 104.827 207.665 104.988 208.222 104.988C208.677 104.988 209.19 104.849 209.762 104.57C210.334 104.277 210.891 103.815 211.434 103.184L211.786 103.36C211.258 104.181 210.547 104.878 209.652 105.45C208.772 106.022 207.782 106.308 206.682 106.308C205.67 106.308 204.841 106.037 204.196 105.494C203.551 104.951 203.228 104.189 203.228 103.206C203.228 101.901 203.58 100.551 204.284 99.158C204.988 97.7647 205.949 96.6133 207.166 95.704C208.383 94.78 209.718 94.318 211.17 94.318C211.845 94.318 212.395 94.472 212.82 94.78C213.245 95.0733 213.458 95.4987 213.458 96.056ZM210.686 94.736C210.261 94.736 209.777 95.0367 209.234 95.638C208.691 96.2393 208.193 97.024 207.738 97.992C207.283 98.9453 206.946 99.928 206.726 100.94C207.767 100.485 208.574 99.994 209.146 99.466C209.733 98.938 210.195 98.3367 210.532 97.662C210.869 96.9727 211.038 96.2393 211.038 95.462C211.038 95.1833 211.009 94.9927 210.95 94.89C210.891 94.7873 210.803 94.736 210.686 94.736ZM215.103 105.692C215.323 105.795 215.609 105.846 215.961 105.846C216.518 105.846 216.965 105.677 217.303 105.34C217.64 105.003 217.809 104.541 217.809 103.954C217.809 103.485 217.706 103.001 217.501 102.502C217.295 102.003 216.987 101.439 216.577 100.808C216.518 100.72 216.342 100.456 216.049 100.016C215.77 99.576 215.557 99.158 215.411 98.762C215.279 98.3513 215.213 97.948 215.213 97.552C215.213 96.5987 215.565 95.8213 216.269 95.22C216.987 94.6187 217.97 94.318 219.217 94.318C220.17 94.318 220.962 94.494 221.593 94.846C222.238 95.1833 222.561 95.77 222.561 96.606C222.561 97.0167 222.443 97.3907 222.209 97.728C221.974 98.0653 221.644 98.234 221.219 98.234C220.852 98.234 220.559 98.0947 220.339 97.816C220.119 97.5373 220.009 97.1853 220.009 96.76C220.009 96.3933 220.075 96.056 220.207 95.748C220.339 95.4253 220.5 95.154 220.691 94.934C220.5 94.8167 220.243 94.758 219.921 94.758C219.393 94.758 218.975 94.9267 218.667 95.264C218.373 95.5867 218.219 96.0413 218.205 96.628C218.205 97.024 218.278 97.3833 218.425 97.706C218.586 98.0287 218.85 98.4833 219.217 99.07L219.525 99.532C219.994 100.309 220.324 100.947 220.515 101.446C220.72 101.945 220.823 102.443 220.823 102.942C220.823 103.587 220.654 104.167 220.317 104.68C219.979 105.179 219.495 105.575 218.865 105.868C218.249 106.161 217.523 106.308 216.687 106.308C215.645 106.308 214.78 106.11 214.091 105.714C213.401 105.303 213.057 104.651 213.057 103.756C213.057 103.316 213.167 102.942 213.387 102.634C213.607 102.326 213.907 102.172 214.289 102.172C214.67 102.172 214.971 102.333 215.191 102.656C215.425 102.979 215.543 103.389 215.543 103.888C215.543 104.211 215.506 104.504 215.433 104.768C215.359 105.017 215.249 105.325 215.103 105.692ZM226.607 90.952C226.622 90.3507 226.842 89.874 227.267 89.522C227.692 89.17 228.22 88.994 228.851 88.994C229.364 88.994 229.76 89.1187 230.039 89.368C230.332 89.6027 230.479 89.9327 230.479 90.358C230.479 90.9447 230.259 91.4287 229.819 91.81C229.379 92.1913 228.836 92.382 228.191 92.382C227.663 92.382 227.26 92.2573 226.981 92.008C226.702 91.744 226.578 91.392 226.607 90.952ZM225.771 96.496C225.874 96.1587 225.925 95.9387 225.925 95.836C225.925 95.5427 225.793 95.396 225.529 95.396C225.265 95.396 225.023 95.5353 224.803 95.814C224.583 96.078 224.356 96.518 224.121 97.134L223.681 98.256H223.263L223.879 96.584C224.422 95.0733 225.441 94.318 226.937 94.318C227.612 94.318 228.103 94.4867 228.411 94.824C228.719 95.1467 228.873 95.572 228.873 96.1C228.873 96.5253 228.792 96.958 228.631 97.398L226.321 104.13C226.233 104.394 226.189 104.607 226.189 104.768C226.189 105.076 226.336 105.23 226.629 105.23C226.849 105.23 227.069 105.105 227.289 104.856C227.524 104.607 227.766 104.152 228.015 103.492L228.411 102.436H228.829L228.257 104.042C227.744 105.553 226.754 106.308 225.287 106.308C223.952 106.308 223.285 105.699 223.285 104.482C223.285 103.998 223.395 103.441 223.615 102.81L225.771 96.496ZM240.011 93.35C240.465 93.35 240.817 93.4747 241.067 93.724C241.316 93.9733 241.441 94.318 241.441 94.758C241.441 95.154 241.338 95.4693 241.133 95.704C240.927 95.924 240.685 96.034 240.407 96.034C240.113 96.034 239.857 95.924 239.637 95.704C239.417 95.4693 239.307 95.154 239.307 94.758C239.307 94.4793 239.373 94.1567 239.505 93.79C238.933 94.0393 238.493 94.3693 238.185 94.78C238.566 94.9707 238.859 95.242 239.065 95.594C239.27 95.9313 239.373 96.342 239.373 96.826C239.373 97.442 239.197 98.058 238.845 98.674C238.507 99.2753 238.023 99.8033 237.393 100.258C236.762 100.698 236.029 100.999 235.193 101.16C234.371 101.527 233.777 101.82 233.411 102.04C233.059 102.26 232.883 102.473 232.883 102.678C232.883 102.81 232.963 102.927 233.125 103.03C233.286 103.118 233.535 103.213 233.873 103.316L235.721 103.932C236.498 104.196 237.107 104.504 237.547 104.856C238.001 105.193 238.229 105.677 238.229 106.308C238.229 107.012 237.921 107.657 237.305 108.244C236.703 108.845 235.889 109.322 234.863 109.674C233.836 110.026 232.729 110.202 231.541 110.202C230.397 110.202 229.443 110.048 228.681 109.74C227.918 109.432 227.537 109.029 227.537 108.53C227.537 108.017 227.947 107.577 228.769 107.21C229.59 106.858 230.521 106.623 231.563 106.506L231.651 106.836C230.741 107.335 230.287 107.914 230.287 108.574C230.287 108.985 230.441 109.293 230.749 109.498C231.057 109.718 231.482 109.828 232.025 109.828C232.567 109.828 233.132 109.718 233.719 109.498C234.32 109.293 234.819 109.007 235.215 108.64C235.611 108.288 235.809 107.907 235.809 107.496C235.809 107.261 235.721 107.085 235.545 106.968C235.383 106.865 235.09 106.755 234.665 106.638L231.541 105.736C231.145 105.619 230.822 105.443 230.573 105.208C230.338 104.959 230.221 104.658 230.221 104.306C230.221 103.778 230.529 103.287 231.145 102.832C231.775 102.377 232.78 101.857 234.159 101.27H233.939C232.956 101.27 232.157 101.065 231.541 100.654C230.939 100.243 230.639 99.6273 230.639 98.806C230.639 98.1313 230.844 97.4493 231.255 96.76C231.68 96.0707 232.303 95.4987 233.125 95.044C233.946 94.5747 234.921 94.34 236.051 94.34C236.667 94.34 237.239 94.4207 237.767 94.582C238.031 94.2153 238.361 93.922 238.757 93.702C239.167 93.4673 239.585 93.35 240.011 93.35ZM234.313 100.874C234.973 100.874 235.479 100.383 235.831 99.4C236.183 98.4027 236.359 97.31 236.359 96.122C236.359 95.682 236.307 95.3447 236.205 95.11C236.117 94.8607 235.933 94.736 235.655 94.736C235.229 94.736 234.855 94.9927 234.533 95.506C234.225 96.0193 233.99 96.6573 233.829 97.42C233.682 98.168 233.609 98.8867 233.609 99.576C233.609 100.045 233.667 100.383 233.785 100.588C233.902 100.779 234.078 100.874 234.313 100.874ZM252.478 102.436L251.928 104.042C251.4 105.553 250.417 106.308 248.98 106.308C248.158 106.308 247.572 106.066 247.22 105.582C247.029 105.303 246.934 104.959 246.934 104.548C246.934 104.079 247.051 103.499 247.286 102.81L249.266 96.87C249.398 96.474 249.464 96.1587 249.464 95.924C249.464 95.5867 249.324 95.418 249.046 95.418C248.606 95.418 248.07 95.8653 247.44 96.76C246.824 97.6547 246.2 98.8353 245.57 100.302C244.939 101.754 244.389 103.287 243.92 104.9L243.634 106H240.532L243.194 96.496C243.282 96.232 243.326 95.9973 243.326 95.792C243.326 95.528 243.201 95.396 242.952 95.396C242.673 95.396 242.424 95.528 242.204 95.792C241.998 96.0413 241.778 96.4887 241.544 97.134L241.126 98.256H240.708L241.302 96.584C241.58 95.7773 241.954 95.198 242.424 94.846C242.893 94.494 243.465 94.318 244.14 94.318C245.401 94.318 246.032 94.9193 246.032 96.122C246.032 96.5327 245.973 96.958 245.856 97.398L245.174 100.06C245.775 98.564 246.347 97.4053 246.89 96.584C247.447 95.748 248.004 95.1613 248.562 94.824C249.134 94.4867 249.764 94.318 250.454 94.318C251.774 94.318 252.434 94.9047 252.434 96.078C252.434 96.518 252.338 97.0387 252.148 97.64L249.992 104.13C249.904 104.394 249.86 104.607 249.86 104.768C249.86 105.076 249.999 105.23 250.278 105.23C250.512 105.23 250.74 105.105 250.96 104.856C251.194 104.607 251.429 104.152 251.664 103.492L252.06 102.436H252.478ZM259.021 104.988C259.021 104.401 259.226 103.91 259.637 103.514C260.048 103.118 260.554 102.92 261.155 102.92C261.624 102.92 261.991 103.037 262.255 103.272C262.519 103.507 262.651 103.837 262.651 104.262C262.651 104.79 262.431 105.267 261.991 105.692C261.566 106.103 261.067 106.308 260.495 106.308C260.026 106.308 259.659 106.191 259.395 105.956C259.146 105.721 259.021 105.399 259.021 104.988ZM281.091 90.49C283.174 90.49 284.662 90.468 285.557 90.424C285.22 91.3333 284.934 92.228 284.699 93.108C284.45 94.032 284.296 94.6773 284.237 95.044H283.731C283.79 94.5893 283.819 94.142 283.819 93.702C283.819 92.69 283.614 91.9787 283.203 91.568C282.807 91.1427 282.147 90.93 281.223 90.93H280.717C280.233 90.93 279.866 90.974 279.617 91.062C279.382 91.1353 279.192 91.2967 279.045 91.546C278.898 91.7953 278.759 92.1987 278.627 92.756L277.219 98.036H278.231C278.935 98.036 279.529 97.794 280.013 97.31C280.497 96.826 280.908 96.188 281.245 95.396H281.729C281.509 96.0853 281.238 97.0387 280.915 98.256C280.783 98.8133 280.556 99.8987 280.233 101.512H279.749C279.793 100.515 279.69 99.7593 279.441 99.246C279.206 98.7327 278.722 98.476 277.989 98.476H277.109L275.723 103.668C275.606 104.108 275.547 104.431 275.547 104.636C275.547 104.988 275.679 105.223 275.943 105.34C276.222 105.457 276.72 105.531 277.439 105.56L277.351 106C276.456 105.956 275.151 105.934 273.435 105.934C271.822 105.934 270.626 105.956 269.849 106L269.959 105.56C270.487 105.531 270.876 105.472 271.125 105.384C271.389 105.296 271.602 105.127 271.763 104.878C271.924 104.629 272.078 104.225 272.225 103.668L275.129 92.756C275.246 92.2573 275.305 91.9053 275.305 91.7C275.305 91.3773 275.195 91.1647 274.975 91.062C274.77 90.9593 274.388 90.8933 273.831 90.864L273.941 90.424C275.54 90.468 277.923 90.49 281.091 90.49ZM292.903 94.318C293.46 94.318 293.893 94.4867 294.201 94.824C294.523 95.1467 294.685 95.572 294.685 96.1C294.685 96.7307 294.479 97.2733 294.069 97.728C293.673 98.168 293.181 98.388 292.595 98.388C292.169 98.388 291.839 98.278 291.605 98.058C291.37 97.8233 291.253 97.4933 291.253 97.068C291.253 96.5547 291.429 96.0927 291.781 95.682C292.133 95.2567 292.565 94.9853 293.079 94.868C293.049 94.868 293.005 94.8607 292.947 94.846C292.888 94.8167 292.837 94.802 292.793 94.802C292.045 94.802 291.282 95.3447 290.505 96.43C289.727 97.5153 288.935 99.4513 288.129 102.238L287.161 106H284.059L286.743 96.496C286.816 96.2613 286.853 96.034 286.853 95.814C286.853 95.5353 286.735 95.396 286.501 95.396C286.222 95.396 285.973 95.528 285.753 95.792C285.533 96.056 285.305 96.5033 285.071 97.134L284.653 98.256H284.235L284.829 96.584C285.371 95.0733 286.383 94.318 287.865 94.318C288.994 94.318 289.559 94.912 289.559 96.1C289.559 96.5253 289.5 96.958 289.383 97.398L289.207 98.102C289.749 96.7087 290.299 95.7333 290.857 95.176C291.429 94.604 292.111 94.318 292.903 94.318ZM294.026 102.678C294.026 101.475 294.297 100.221 294.84 98.916C295.397 97.6107 296.211 96.518 297.282 95.638C298.367 94.758 299.658 94.318 301.154 94.318C302.298 94.318 303.178 94.6333 303.794 95.264C304.41 95.88 304.718 96.7747 304.718 97.948C304.718 99.1507 304.439 100.405 303.882 101.71C303.339 103.015 302.525 104.108 301.44 104.988C300.369 105.868 299.086 106.308 297.59 106.308C296.446 106.308 295.566 106 294.95 105.384C294.334 104.753 294.026 103.851 294.026 102.678ZM301.044 94.758C300.501 94.758 299.907 95.2787 299.262 96.32C298.616 97.3613 298.074 98.6373 297.634 100.148C297.194 101.659 296.974 103.067 296.974 104.372C296.974 104.9 297.032 105.281 297.15 105.516C297.267 105.751 297.458 105.868 297.722 105.868C298.264 105.868 298.851 105.362 299.482 104.35C300.127 103.338 300.67 102.084 301.11 100.588C301.55 99.0773 301.77 97.6473 301.77 96.298C301.77 95.726 301.711 95.33 301.594 95.11C301.476 94.8753 301.293 94.758 301.044 94.758ZM317.704 102.436L317.154 104.042C316.626 105.553 315.644 106.308 314.206 106.308C313.385 106.308 312.798 106.066 312.446 105.582C312.256 105.303 312.16 104.959 312.16 104.548C312.16 104.079 312.278 103.499 312.512 102.81L314.492 96.87C314.624 96.474 314.69 96.1587 314.69 95.924C314.69 95.5867 314.551 95.418 314.272 95.418C313.832 95.418 313.297 95.8653 312.666 96.76C312.05 97.6547 311.427 98.8353 310.796 100.302C310.166 101.754 309.616 103.287 309.146 104.9L308.86 106H305.758L308.42 96.496C308.508 96.232 308.552 95.9973 308.552 95.792C308.552 95.528 308.428 95.396 308.178 95.396C307.9 95.396 307.65 95.528 307.43 95.792C307.225 96.0413 307.005 96.4887 306.77 97.134L306.352 98.256H305.934L306.528 96.584C306.807 95.7773 307.181 95.198 307.65 94.846C308.12 94.494 308.692 94.318 309.366 94.318C310.628 94.318 311.258 94.9193 311.258 96.122C311.258 96.5327 311.2 96.958 311.082 97.398L310.4 100.06C311.002 98.564 311.574 97.4053 312.116 96.584C312.674 95.748 313.231 95.1613 313.788 94.824C314.36 94.4867 314.991 94.318 315.68 94.318C317 94.318 317.66 94.9047 317.66 96.078C317.66 96.518 317.565 97.0387 317.374 97.64L315.218 104.13C315.13 104.394 315.086 104.607 315.086 104.768C315.086 105.076 315.226 105.23 315.504 105.23C315.739 105.23 315.966 105.105 316.186 104.856C316.421 104.607 316.656 104.152 316.89 103.492L317.286 102.436H317.704ZM322.27 104.13C322.226 104.277 322.204 104.423 322.204 104.57C322.204 104.79 322.263 104.959 322.38 105.076C322.497 105.179 322.659 105.23 322.864 105.23C323.187 105.23 323.495 105.076 323.788 104.768C324.096 104.445 324.367 103.969 324.602 103.338L324.932 102.436H325.35L324.91 103.712C324.338 105.443 323.238 106.308 321.61 106.308C320.862 106.308 320.297 106.117 319.916 105.736C319.549 105.34 319.366 104.805 319.366 104.13C319.366 103.705 319.432 103.265 319.564 102.81L321.786 95.066H319.806L319.916 94.626H321.918L322.864 91.348C324.111 91.3333 325.174 91.2307 326.054 91.04L325.02 94.626H327.506L327.44 95.066H324.888L322.27 104.13ZM336.714 96.056C336.714 97.2733 336.032 98.3367 334.668 99.246C333.304 100.155 331.72 100.859 329.916 101.358C329.828 101.857 329.784 102.355 329.784 102.854C329.784 103.631 329.923 104.181 330.202 104.504C330.495 104.827 330.921 104.988 331.478 104.988C331.933 104.988 332.446 104.849 333.018 104.57C333.59 104.277 334.147 103.815 334.69 103.184L335.042 103.36C334.514 104.181 333.803 104.878 332.908 105.45C332.028 106.022 331.038 106.308 329.938 106.308C328.926 106.308 328.097 106.037 327.452 105.494C326.807 104.951 326.484 104.189 326.484 103.206C326.484 101.901 326.836 100.551 327.54 99.158C328.244 97.7647 329.205 96.6133 330.422 95.704C331.639 94.78 332.974 94.318 334.426 94.318C335.101 94.318 335.651 94.472 336.076 94.78C336.501 95.0733 336.714 95.4987 336.714 96.056ZM333.942 94.736C333.517 94.736 333.033 95.0367 332.49 95.638C331.947 96.2393 331.449 97.024 330.994 97.992C330.539 98.9453 330.202 99.928 329.982 100.94C331.023 100.485 331.83 99.994 332.402 99.466C332.989 98.938 333.451 98.3367 333.788 97.662C334.125 96.9727 334.294 96.2393 334.294 95.462C334.294 95.1833 334.265 94.9927 334.206 94.89C334.147 94.7873 334.059 94.736 333.942 94.736ZM349.028 102.436L348.478 104.042C347.95 105.553 346.968 106.308 345.53 106.308C344.709 106.308 344.122 106.066 343.77 105.582C343.58 105.303 343.484 104.959 343.484 104.548C343.484 104.079 343.602 103.499 343.836 102.81L345.816 96.87C345.948 96.474 346.014 96.1587 346.014 95.924C346.014 95.5867 345.875 95.418 345.596 95.418C345.156 95.418 344.621 95.8653 343.99 96.76C343.374 97.6547 342.751 98.8353 342.12 100.302C341.49 101.754 340.94 103.287 340.47 104.9L340.184 106H337.082L339.744 96.496C339.832 96.232 339.876 95.9973 339.876 95.792C339.876 95.528 339.752 95.396 339.502 95.396C339.224 95.396 338.974 95.528 338.754 95.792C338.549 96.0413 338.329 96.4887 338.094 97.134L337.676 98.256H337.258L337.852 96.584C338.131 95.7773 338.505 95.198 338.974 94.846C339.444 94.494 340.016 94.318 340.69 94.318C341.952 94.318 342.582 94.9193 342.582 96.122C342.582 96.5327 342.524 96.958 342.406 97.398L341.724 100.06C342.326 98.564 342.898 97.4053 343.44 96.584C343.998 95.748 344.555 95.1613 345.112 94.824C345.684 94.4867 346.315 94.318 347.004 94.318C348.324 94.318 348.984 94.9047 348.984 96.078C348.984 96.518 348.889 97.0387 348.698 97.64L346.542 104.13C346.454 104.394 346.41 104.607 346.41 104.768C346.41 105.076 346.55 105.23 346.828 105.23C347.063 105.23 347.29 105.105 347.51 104.856C347.745 104.607 347.98 104.152 348.214 103.492L348.61 102.436H349.028ZM361.338 102.436H361.756L361.228 104.042C360.964 104.878 360.568 105.465 360.04 105.802C359.527 106.139 358.955 106.308 358.324 106.308C357.415 106.308 356.836 105.971 356.586 105.296C356.469 105.032 356.41 104.724 356.41 104.372C356.41 103.947 356.498 103.426 356.674 102.81L356.696 102.722C356.139 103.969 355.545 104.878 354.914 105.45C354.298 106.022 353.558 106.308 352.692 106.308C351.915 106.308 351.284 106.051 350.8 105.538C350.316 105.025 350.074 104.255 350.074 103.228C350.074 102.04 350.382 100.749 350.998 99.356C351.614 97.948 352.48 96.76 353.594 95.792C354.709 94.8093 355.978 94.318 357.4 94.318C358.09 94.318 358.537 94.5673 358.742 95.066L359.732 91.326C359.806 91.062 359.842 90.8567 359.842 90.71C359.842 90.4167 359.725 90.204 359.49 90.072C359.27 89.94 358.889 89.874 358.346 89.874L358.478 89.412C359.49 89.3973 360.407 89.3167 361.228 89.17C362.064 89.0233 362.864 88.8033 363.626 88.51L359.314 104.13C359.241 104.335 359.204 104.533 359.204 104.724C359.204 105.061 359.344 105.23 359.622 105.23C359.842 105.23 360.062 105.105 360.282 104.856C360.502 104.592 360.73 104.137 360.964 103.492L361.338 102.436ZM358.588 95.594C358.427 95.0807 358.134 94.824 357.708 94.824C357.078 94.824 356.418 95.2787 355.728 96.188C355.054 97.0827 354.482 98.2193 354.012 99.598C353.558 100.977 353.33 102.341 353.33 103.69C353.33 104.203 353.382 104.585 353.484 104.834C353.602 105.083 353.785 105.208 354.034 105.208C354.328 105.208 354.672 104.995 355.068 104.57C355.464 104.13 355.875 103.499 356.3 102.678C356.74 101.857 357.136 100.881 357.488 99.752L358.588 95.594ZM384.966 95.682C384.966 97.3687 384.555 99.004 383.734 100.588C382.913 102.172 381.681 103.47 380.038 104.482C378.41 105.494 376.437 106 374.12 106L373.042 105.978C372.191 105.949 371.443 105.934 370.798 105.934C369.375 105.934 368.275 105.956 367.498 106L367.564 105.56C368.063 105.531 368.437 105.472 368.686 105.384C368.95 105.296 369.155 105.127 369.302 104.878C369.463 104.614 369.617 104.211 369.764 103.668L372.646 92.756C372.763 92.36 372.822 92.0447 372.822 91.81C372.822 91.4873 372.712 91.2527 372.492 91.106C372.287 90.9593 371.913 90.8787 371.37 90.864L371.436 90.424C372.096 90.468 373.064 90.49 374.34 90.49H375.044C376.584 90.446 377.677 90.424 378.322 90.424C380.478 90.424 382.121 90.8713 383.25 91.766C384.394 92.646 384.966 93.9513 384.966 95.682ZM374.12 105.604C375.616 105.604 376.914 105.083 378.014 104.042C379.114 103.001 379.95 101.666 380.522 100.038C381.109 98.3953 381.402 96.7087 381.402 94.978C381.402 93.5993 381.116 92.5653 380.544 91.876C379.972 91.172 379.07 90.82 377.838 90.82C377.457 90.82 377.171 90.8713 376.98 90.974C376.804 91.062 376.657 91.2307 376.54 91.48C376.423 91.7293 376.291 92.14 376.144 92.712L373.262 103.712C373.101 104.357 373.02 104.761 373.02 104.922C373.02 105.171 373.101 105.347 373.262 105.45C373.438 105.553 373.724 105.604 374.12 105.604ZM395.603 96.056C395.603 97.2733 394.921 98.3367 393.557 99.246C392.193 100.155 390.609 100.859 388.805 101.358C388.717 101.857 388.673 102.355 388.673 102.854C388.673 103.631 388.812 104.181 389.091 104.504C389.384 104.827 389.809 104.988 390.367 104.988C390.821 104.988 391.335 104.849 391.907 104.57C392.479 104.277 393.036 103.815 393.579 103.184L393.931 103.36C393.403 104.181 392.691 104.878 391.797 105.45C390.917 106.022 389.927 106.308 388.827 106.308C387.815 106.308 386.986 106.037 386.341 105.494C385.695 104.951 385.373 104.189 385.373 103.206C385.373 101.901 385.725 100.551 386.429 99.158C387.133 97.7647 388.093 96.6133 389.311 95.704C390.528 94.78 391.863 94.318 393.315 94.318C393.989 94.318 394.539 94.472 394.965 94.78C395.39 95.0733 395.603 95.4987 395.603 96.056ZM392.831 94.736C392.405 94.736 391.921 95.0367 391.379 95.638C390.836 96.2393 390.337 97.024 389.883 97.992C389.428 98.9453 389.091 99.928 388.871 100.94C389.912 100.485 390.719 99.994 391.291 99.466C391.877 98.938 392.339 98.3367 392.677 97.662C393.014 96.9727 393.183 96.2393 393.183 95.462C393.183 95.1833 393.153 94.9927 393.095 94.89C393.036 94.7873 392.948 94.736 392.831 94.736ZM405.893 98.762C405.262 98.454 404.742 98.0433 404.331 97.53C403.935 97.0167 403.737 96.4447 403.737 95.814C403.737 95.3447 403.862 94.978 404.111 94.714C404.375 94.45 404.727 94.318 405.167 94.318C405.695 94.318 406.076 94.5453 406.311 95C406.56 95.44 406.67 96.056 406.641 96.848C406.568 98.3293 406.252 99.8033 405.695 101.27C405.138 102.722 404.331 103.925 403.275 104.878C402.219 105.831 400.958 106.308 399.491 106.308C398.391 106.308 397.599 106.059 397.115 105.56C396.631 105.061 396.389 104.438 396.389 103.69C396.389 101.27 398.354 98.4467 402.285 95.22C401.933 95.264 401.618 95.3667 401.339 95.528C401.075 95.6893 400.76 95.924 400.393 96.232C400.085 96.496 399.828 96.694 399.623 96.826C399.418 96.9433 399.205 97.002 398.985 97.002C398.794 97.002 398.567 96.9287 398.303 96.782C398.068 96.65 397.878 96.584 397.731 96.584C397.526 96.584 397.357 96.6647 397.225 96.826C397.108 96.9727 396.983 97.244 396.851 97.64L396.675 98.234H396.257L396.741 96.628C397.166 95.0733 397.856 94.296 398.809 94.296C398.985 94.296 399.139 94.3253 399.271 94.384C399.403 94.428 399.572 94.5087 399.777 94.626C399.997 94.758 400.195 94.8607 400.371 94.934C400.562 94.9927 400.789 95.022 401.053 95.022C401.654 95.022 402.19 94.868 402.659 94.56L402.879 94.142L403.341 94.362C402.256 95.9313 401.39 97.5667 400.745 99.268C400.1 100.955 399.777 102.429 399.777 103.69C399.777 104.247 399.858 104.658 400.019 104.922C400.18 105.186 400.43 105.318 400.767 105.318C401.632 105.318 402.424 104.981 403.143 104.306C403.862 103.631 404.456 102.788 404.925 101.776C405.394 100.764 405.717 99.7593 405.893 98.762ZM417.474 96.056C417.474 97.2733 416.792 98.3367 415.428 99.246C414.064 100.155 412.48 100.859 410.676 101.358C410.588 101.857 410.544 102.355 410.544 102.854C410.544 103.631 410.683 104.181 410.962 104.504C411.255 104.827 411.68 104.988 412.238 104.988C412.692 104.988 413.206 104.849 413.778 104.57C414.35 104.277 414.907 103.815 415.45 103.184L415.802 103.36C415.274 104.181 414.562 104.878 413.668 105.45C412.788 106.022 411.798 106.308 410.698 106.308C409.686 106.308 408.857 106.037 408.212 105.494C407.566 104.951 407.244 104.189 407.244 103.206C407.244 101.901 407.596 100.551 408.3 99.158C409.004 97.7647 409.964 96.6133 411.182 95.704C412.399 94.78 413.734 94.318 415.186 94.318C415.86 94.318 416.41 94.472 416.836 94.78C417.261 95.0733 417.474 95.4987 417.474 96.056ZM414.702 94.736C414.276 94.736 413.792 95.0367 413.25 95.638C412.707 96.2393 412.208 97.024 411.754 97.992C411.299 98.9453 410.962 99.928 410.742 100.94C411.783 100.485 412.59 99.994 413.162 99.466C413.748 98.938 414.21 98.3367 414.548 97.662C414.885 96.9727 415.054 96.2393 415.054 95.462C415.054 95.1833 415.024 94.9927 414.966 94.89C414.907 94.7873 414.819 94.736 414.702 94.736ZM420.614 104.13C420.556 104.321 420.526 104.504 420.526 104.68C420.526 105.047 420.68 105.23 420.988 105.23C421.443 105.23 421.883 104.651 422.308 103.492L422.704 102.436H423.122L422.572 104.042C422.294 104.863 421.89 105.45 421.362 105.802C420.834 106.139 420.262 106.308 419.646 106.308C418.986 106.308 418.488 106.139 418.15 105.802C417.813 105.45 417.644 104.966 417.644 104.35C417.644 103.895 417.732 103.382 417.908 102.81L421.362 91.326C421.436 91.062 421.472 90.8567 421.472 90.71C421.472 90.4167 421.355 90.204 421.12 90.072C420.9 89.94 420.519 89.874 419.976 89.874L420.13 89.412C421.142 89.3973 422.052 89.3167 422.858 89.17C423.665 89.0233 424.457 88.8033 425.234 88.51L420.614 104.13ZM424.35 102.678C424.35 101.475 424.621 100.221 425.164 98.916C425.721 97.6107 426.535 96.518 427.606 95.638C428.691 94.758 429.982 94.318 431.478 94.318C432.622 94.318 433.502 94.6333 434.118 95.264C434.734 95.88 435.042 96.7747 435.042 97.948C435.042 99.1507 434.763 100.405 434.206 101.71C433.663 103.015 432.849 104.108 431.764 104.988C430.693 105.868 429.41 106.308 427.914 106.308C426.77 106.308 425.89 106 425.274 105.384C424.658 104.753 424.35 103.851 424.35 102.678ZM431.368 94.758C430.825 94.758 430.231 95.2787 429.586 96.32C428.941 97.3613 428.398 98.6373 427.958 100.148C427.518 101.659 427.298 103.067 427.298 104.372C427.298 104.9 427.357 105.281 427.474 105.516C427.591 105.751 427.782 105.868 428.046 105.868C428.589 105.868 429.175 105.362 429.806 104.35C430.451 103.338 430.994 102.084 431.434 100.588C431.874 99.0773 432.094 97.6473 432.094 96.298C432.094 95.726 432.035 95.33 431.918 95.11C431.801 94.8753 431.617 94.758 431.368 94.758ZM445.168 94.318C446.063 94.318 446.738 94.6113 447.192 95.198C447.662 95.77 447.896 96.606 447.896 97.706C447.896 98.9087 447.625 100.185 447.082 101.534C446.554 102.869 445.792 103.998 444.794 104.922C443.797 105.846 442.638 106.308 441.318 106.308C440.908 106.308 440.526 106.242 440.174 106.11C439.822 105.978 439.544 105.787 439.338 105.538L438.744 107.65C438.656 107.958 438.612 108.222 438.612 108.442C438.612 108.853 438.759 109.131 439.052 109.278C439.346 109.425 439.808 109.505 440.438 109.52L440.306 109.982L439.8 109.96C438.304 109.916 437.314 109.894 436.83 109.894C436.346 109.894 435.312 109.923 433.728 109.982L433.86 109.52C434.388 109.52 434.77 109.425 435.004 109.234C435.239 109.043 435.43 108.684 435.576 108.156L439.558 93.878C439.148 94.7873 438.678 95.6087 438.15 96.342C437.622 97.0607 436.977 97.8087 436.214 98.586L435.972 98.3C436.618 97.596 437.153 96.9873 437.578 96.474C438.004 95.946 438.429 95.308 438.854 94.56C439.294 93.7973 439.727 92.8733 440.152 91.788L440.218 91.524C441.406 91.436 442.499 91.2307 443.496 90.908L441.604 97.618C442.132 96.474 442.69 95.638 443.276 95.11C443.863 94.582 444.494 94.318 445.168 94.318ZM440.46 105.67C441.15 105.67 441.817 105.23 442.462 104.35C443.122 103.455 443.658 102.355 444.068 101.05C444.479 99.73 444.684 98.4833 444.684 97.31C444.684 96.6207 444.618 96.144 444.486 95.88C444.369 95.616 444.193 95.484 443.958 95.484C443.518 95.484 443.02 95.9093 442.462 96.76C441.905 97.6107 441.392 98.6887 440.922 99.994L439.448 105.164C439.727 105.501 440.064 105.67 440.46 105.67ZM466.399 102.436L465.849 104.042C465.321 105.553 464.331 106.308 462.879 106.308C462.028 106.308 461.441 106.044 461.119 105.516C460.957 105.267 460.877 104.937 460.877 104.526C460.877 104.042 460.987 103.47 461.207 102.81L463.187 96.87C463.304 96.4887 463.363 96.1953 463.363 95.99C463.363 95.6967 463.26 95.55 463.055 95.55C462.453 95.55 461.727 96.276 460.877 97.728C460.041 99.1653 459.197 101.263 458.347 104.02V103.954L457.775 106H454.629L457.313 96.87C457.43 96.4887 457.489 96.188 457.489 95.968C457.489 95.6893 457.371 95.55 457.137 95.55C456.477 95.55 455.729 96.3127 454.893 97.838C454.071 99.3633 453.294 101.351 452.561 103.8V103.778L451.989 106H448.887L451.571 96.496C451.644 96.2467 451.681 96.034 451.681 95.858C451.681 95.55 451.549 95.396 451.285 95.396C451.021 95.396 450.779 95.5353 450.559 95.814C450.353 96.078 450.133 96.518 449.899 97.134L449.481 98.256H449.063L449.657 96.584C449.95 95.7773 450.353 95.198 450.867 94.846C451.395 94.494 451.981 94.318 452.627 94.318C453.257 94.318 453.712 94.4793 453.991 94.802C454.269 95.1247 454.409 95.55 454.409 96.078C454.409 96.4593 454.343 96.8993 454.211 97.398L453.727 99.29C454.445 97.5007 455.179 96.2247 455.927 95.462C456.689 94.6993 457.599 94.318 458.655 94.318C459.813 94.318 460.393 94.89 460.393 96.034C460.393 96.4447 460.305 96.98 460.129 97.64L459.733 99.048C460.466 97.3027 461.207 96.078 461.955 95.374C462.717 94.67 463.59 94.318 464.573 94.318C465.189 94.318 465.643 94.472 465.937 94.78C466.23 95.088 466.377 95.506 466.377 96.034C466.377 96.518 466.274 97.0533 466.069 97.64L463.913 104.13C463.825 104.409 463.781 104.621 463.781 104.768C463.781 105.076 463.92 105.23 464.199 105.23C464.697 105.23 465.159 104.651 465.585 103.492L465.981 102.436H466.399ZM477.694 96.056C477.694 97.2733 477.012 98.3367 475.648 99.246C474.284 100.155 472.7 100.859 470.896 101.358C470.808 101.857 470.764 102.355 470.764 102.854C470.764 103.631 470.904 104.181 471.182 104.504C471.476 104.827 471.901 104.988 472.458 104.988C472.913 104.988 473.426 104.849 473.998 104.57C474.57 104.277 475.128 103.815 475.67 103.184L476.022 103.36C475.494 104.181 474.783 104.878 473.888 105.45C473.008 106.022 472.018 106.308 470.918 106.308C469.906 106.308 469.078 106.037 468.432 105.494C467.787 104.951 467.464 104.189 467.464 103.206C467.464 101.901 467.816 100.551 468.52 99.158C469.224 97.7647 470.185 96.6133 471.402 95.704C472.62 94.78 473.954 94.318 475.406 94.318C476.081 94.318 476.631 94.472 477.056 94.78C477.482 95.0733 477.694 95.4987 477.694 96.056ZM474.922 94.736C474.497 94.736 474.013 95.0367 473.47 95.638C472.928 96.2393 472.429 97.024 471.974 97.992C471.52 98.9453 471.182 99.928 470.962 100.94C472.004 100.485 472.81 99.994 473.382 99.466C473.969 98.938 474.431 98.3367 474.768 97.662C475.106 96.9727 475.274 96.2393 475.274 95.462C475.274 95.1833 475.245 94.9927 475.186 94.89C475.128 94.7873 475.04 94.736 474.922 94.736ZM490.009 102.436L489.459 104.042C488.931 105.553 487.948 106.308 486.511 106.308C485.69 106.308 485.103 106.066 484.751 105.582C484.56 105.303 484.465 104.959 484.465 104.548C484.465 104.079 484.582 103.499 484.817 102.81L486.797 96.87C486.929 96.474 486.995 96.1587 486.995 95.924C486.995 95.5867 486.856 95.418 486.577 95.418C486.137 95.418 485.602 95.8653 484.971 96.76C484.355 97.6547 483.732 98.8353 483.101 100.302C482.47 101.754 481.92 103.287 481.451 104.9L481.165 106H478.063L480.725 96.496C480.813 96.232 480.857 95.9973 480.857 95.792C480.857 95.528 480.732 95.396 480.483 95.396C480.204 95.396 479.955 95.528 479.735 95.792C479.53 96.0413 479.31 96.4887 479.075 97.134L478.657 98.256H478.239L478.833 96.584C479.112 95.7773 479.486 95.198 479.955 94.846C480.424 94.494 480.996 94.318 481.671 94.318C482.932 94.318 483.563 94.9193 483.563 96.122C483.563 96.5327 483.504 96.958 483.387 97.398L482.705 100.06C483.306 98.564 483.878 97.4053 484.421 96.584C484.978 95.748 485.536 95.1613 486.093 94.824C486.665 94.4867 487.296 94.318 487.985 94.318C489.305 94.318 489.965 94.9047 489.965 96.078C489.965 96.518 489.87 97.0387 489.679 97.64L487.523 104.13C487.435 104.394 487.391 104.607 487.391 104.768C487.391 105.076 487.53 105.23 487.809 105.23C488.044 105.23 488.271 105.105 488.491 104.856C488.726 104.607 488.96 104.152 489.195 103.492L489.591 102.436H490.009ZM494.575 104.13C494.531 104.277 494.509 104.423 494.509 104.57C494.509 104.79 494.567 104.959 494.685 105.076C494.802 105.179 494.963 105.23 495.169 105.23C495.491 105.23 495.799 105.076 496.093 104.768C496.401 104.445 496.672 103.969 496.907 103.338L497.237 102.436H497.655L497.215 103.712C496.643 105.443 495.543 106.308 493.915 106.308C493.167 106.308 492.602 106.117 492.221 105.736C491.854 105.34 491.671 104.805 491.671 104.13C491.671 103.705 491.737 103.265 491.869 102.81L494.091 95.066H492.111L492.221 94.626H494.223L495.169 91.348C496.415 91.3333 497.479 91.2307 498.359 91.04L497.325 94.626H499.811L499.745 95.066H497.193L494.575 104.13Z" fill="black" fill-opacity="0.54"/>
</svg>
